<?xml version="1.0" encoding="UTF-8" standalone="no"?>
<!-- Created with Inkscape (http://www.inkscape.org/) -->

<svg
   xmlns:dc="http://purl.org/dc/elements/1.1/"
   xmlns:cc="http://creativecommons.org/ns#"
   xmlns:rdf="http://www.w3.org/1999/02/22-rdf-syntax-ns#"
   xmlns:svg="http://www.w3.org/2000/svg"
   xmlns="http://www.w3.org/2000/svg"
   xmlns:sodipodi="http://sodipodi.sourceforge.net/DTD/sodipodi-0.dtd"
   xmlns:inkscape="http://www.inkscape.org/namespaces/inkscape"
   width="43.908485mm"
   height="32.300529mm"
   viewBox="0 0 155.58125 114.45069"
   id="svg7935"
   version="1.1"
   inkscape:version="0.91 r13725"
   sodipodi:docname="logoPoliWhite_nome.svg">
  <defs
     id="defs7937">
    <clipPath
       clipPathUnits="userSpaceOnUse"
       id="clipPath752">
      <path
         d="m 0,0 595.276,0 0,841.89 L 0,841.89 0,0 Z"
         id="path754"
         inkscape:connector-curvature="0" />
    </clipPath>
    <clipPath
       clipPathUnits="userSpaceOnUse"
       id="clipPath700">
      <path
         d="m 0,0 595.276,0 0,841.89 L 0,841.89 0,0 Z"
         id="path702"
         inkscape:connector-curvature="0" />
    </clipPath>
    <clipPath
       clipPathUnits="userSpaceOnUse"
       id="clipPath656">
      <path
         d="m 0,0 595.276,0 0,841.89 L 0,841.89 0,0 Z"
         id="path658"
         inkscape:connector-curvature="0" />
    </clipPath>
    <clipPath
       clipPathUnits="userSpaceOnUse"
       id="clipPath628">
      <path
         d="m 0,0 595.276,0 0,841.89 L 0,841.89 0,0 Z"
         id="path630"
         inkscape:connector-curvature="0" />
    </clipPath>
    <clipPath
       clipPathUnits="userSpaceOnUse"
       id="clipPath604">
      <path
         d="m 0,0 595.276,0 0,841.89 L 0,841.89 0,0 Z"
         id="path606"
         inkscape:connector-curvature="0" />
    </clipPath>
  </defs>
  <sodipodi:namedview
     id="base"
     pagecolor="#ffffff"
     bordercolor="#666666"
     borderopacity="1.0"
     inkscape:pageopacity="0.0"
     inkscape:pageshadow="2"
     inkscape:zoom="3.959798"
     inkscape:cx="129.39431"
     inkscape:cy="81.613533"
     inkscape:document-units="px"
     inkscape:current-layer="layer1"
     showgrid="false"
     fit-margin-top="0"
     fit-margin-left="0"
     fit-margin-right="0"
     fit-margin-bottom="0"
     inkscape:window-width="1920"
     inkscape:window-height="1033"
     inkscape:window-x="1598"
     inkscape:window-y="-3"
     inkscape:window-maximized="1" />
  <metadata
     id="metadata7940">
    <rdf:RDF>
      <cc:Work
         rdf:about="">
        <dc:format>image/svg+xml</dc:format>
        <dc:type
           rdf:resource="http://purl.org/dc/dcmitype/StillImage" />
        <dc:title></dc:title>
      </cc:Work>
    </rdf:RDF>
  </metadata>
  <g
     inkscape:label="Layer 1"
     inkscape:groupmode="layer"
     id="layer1"
     transform="translate(1072.0763,-900.85115)">
    <g
       id="g596"
       transform="matrix(1.25,0,0,-1.25,-959.51071,936.88196)">
      <path
         d="M 0,0 -2.473,0.085 M 0.012,1.307 -2.462,1.268 M -0.037,2.612 -2.506,2.45 M -0.145,3.899 -2.606,3.645 M -0.315,5.194 -2.76,4.818 m 2.215,1.661 -2.424,-0.496 m 2.134,1.769 -2.397,-0.614 m 2.047,1.871 -2.364,-0.73 m 1.96,1.955 -2.336,-0.816 m 1.87,2.035 -2.293,-0.928 m 1.771,2.123 -2.247,-1.037 m 1.67,2.206 -2.195,-1.143 m 1.563,2.284 -2.137,-1.246 m 1.454,2.356 -2.076,-1.347 m 1.342,2.424 -2.01,-1.443 m 1.226,2.484 -1.939,-1.536 m 1.108,2.54 -1.865,-1.626 m 0.989,2.59 -1.786,-1.711 m 0.866,2.634 -1.704,-1.794 m 0.742,2.673 -1.617,-1.872 m 0.626,2.697 -1.549,-1.929 m 0.51,2.715 -1.457,-2 m 0.381,2.738 -1.359,-2.068 m 0.251,2.754 -1.259,-2.13 m 0.119,2.764 -1.155,-2.188 m -0.014,2.768 -1.047,-2.241 m -0.148,2.766 -0.937,-2.29 m -0.281,2.758 -0.824,-2.333 m -0.416,2.744 -0.708,-2.371 m -0.535,2.718 -0.62,-2.395 m -0.653,2.688 -0.5,-2.423 m -0.785,2.656 -0.379,-2.445 m -0.901,2.617 -0.287,-2.458 m -1.015,2.571 -0.163,-2.469 m -1.143,2.523 -0.039,-2.474 m -1.253,2.468 0.056,-2.474 m -1.361,2.407 0.18,-2.468 m -1.481,2.34 0.304,-2.455 m -1.597,2.267 0.426,-2.437 m -1.694,2.191 0.518,-2.419 m -1.787,2.111 0.637,-2.391 m -1.89,2.023 0.754,-2.357 m -1.988,1.931 0.868,-2.317 m -2.08,1.834 0.98,-2.272 m -2.155,1.739 1.062,-2.235 m -2.224,1.641 1.169,-2.181 m -2.301,1.534 1.273,-2.122 m -2.374,1.423 1.373,-2.059 m -2.44,1.309 1.47,-1.99 m -2.501,1.192 1.563,-1.918 m -2.556,1.073 1.653,-1.841 m -2.606,0.951 1.739,-1.761 m -2.639,0.839 1.8,-1.698 m -2.667,0.723 1.88,-1.609 m -2.7,0.595 1.955,-1.517 m -2.727,0.466 2.025,-1.421 m -2.748,0.335 2.092,-1.322 m -2.764,0.203 2.154,-1.219 m -2.772,0.07 2.211,-1.112 m -2.769,-0.052 2.25,-1.03 m -2.758,-0.173 2.298,-0.918 m -2.749,-0.308 2.341,-0.802 m -2.734,-0.444 2.377,-0.684 m -2.712,-0.579 2.409,-0.565 m -2.681,-0.697 2.429,-0.474 m -2.644,-0.816 2.45,-0.35 m -2.605,-0.948 2.464,-0.226 m -2.558,-1.062 2.47,-0.133 m -2.506,-1.174 2.474,-0.007 m -2.45,-1.301 2.472,0.118 m -2.387,-1.406 2.465,0.211 m -2.319,-1.51 2.451,0.335 m -2.245,-1.625 2.432,0.457 m -2.168,-1.721 2.413,0.547 m -2.086,-1.812 2.382,0.667 m -1.997,-1.914 2.347,0.783 m -1.903,-2.011 2.306,0.897 m -1.806,-2.102 2.26,1.008 m -1.704,-2.189 2.208,1.117 m -1.597,-2.269 2.152,1.221 m -1.496,-2.331 2.106,1.298 m -1.391,-2.389 2.041,1.397 m -1.277,-2.454 1.973,1.494 m -1.16,-2.513 1.899,1.586 m -1.041,-2.567 1.822,1.675 m -0.918,-2.615 1.739,1.76 m -0.793,-2.657 1.654,1.84 m -0.667,-2.693 1.563,1.918 m -0.549,-2.714 1.493,1.972 m -0.431,-2.73 1.396,2.043 m -0.3,-2.75 1.296,2.108 m -0.167,-2.763 1.192,2.168 m -0.034,-2.77 1.085,2.223 m 0.1,-2.771 0.974,2.275 m 0.222,-2.76 0.889,2.309 m 0.343,-2.743 0.774,2.351 m 0.478,-2.726 0.655,2.386 m 0.613,-2.703 0.534,2.416 m 0.732,-2.67 0.443,2.435 m 0.85,-2.632 0.319,2.454 m 0.981,-2.591 0.195,2.467 m 1.094,-2.544 0.101,2.472 m 1.207,-2.489 -0.025,2.474 m 1.331,-2.432 -0.149,2.47 m 1.437,-2.367 -0.243,2.462 m 1.539,-2.298 -0.365,2.447 m 1.652,-2.222 -0.487,2.426 m 1.762,-2.141 -0.607,2.399 m 1.852,-2.059 -0.695,2.375 m 1.937,-1.972 -0.811,2.338 m 2.032,-1.877 -0.924,2.295 m 2.123,-1.778 -1.036,2.247 m 2.208,-1.675 -1.143,2.195 m 2.287,-1.568 -1.247,2.137 m 2.36,-1.458 -1.348,2.075 m 2.417,-1.354 -1.422,2.026 m 2.468,-1.247 -1.517,1.955 m 2.525,-1.128 -1.608,1.88 m 2.577,-1.008 -1.696,1.802 m 2.623,-0.885 -1.78,1.718 m 2.664,-0.76 -1.86,1.632 m 2.699,-0.633 -1.936,1.54 m 2.728,-0.504 -2.008,1.446 m 2.742,-0.386 -2.059,1.373 m 2.751,-0.266 -2.123,1.27 m 2.763,-0.133 -2.183,1.166 m 2.768,10e-4 -2.237,1.057 m 2.768,0.136 -2.287,0.946 m 2.761,0.271 -2.331,0.832 m 2.742,0.392 -2.36,0.744 m 2.718,0.512 -2.394,0.626 m 2.693,0.647 -2.423,0.504 m 2.662,0.781 -2.445,0.381 m 2.621,0.899 -2.457,0.288 m 2.577,1.014 -2.469,0.163"
         style="fill:none;stroke:#231f20;stroke-width:0.463;stroke-linecap:butt;stroke-linejoin:miter;stroke-miterlimit:10;stroke-dasharray:none;stroke-opacity:1"
         id="path598"
         inkscape:connector-curvature="0" />
    </g>
    <g
       transform="matrix(1.25,0,0,-1.25,-1241.2772,1567.0287)"
       id="g600">
      <g
         id="g602"
         clip-path="url(#clipPath604)">
        <g
           id="g608"
           transform="translate(193.7965,509.0092)">
          <path
             d="m 0,0 c 0,0 -0.336,-0.111 -0.471,-0.223 -0.134,-0.112 -0.672,-0.538 -0.784,-0.583 -0.112,-0.045 -0.964,-0.84 -1.031,-0.941 -0.067,-0.101 -0.112,-0.448 -0.067,-0.56 0.045,-0.112 0.448,-1.135 0.471,-1.233 0.022,-0.098 0.381,-0.19 0.425,-0.328 0.045,-0.138 0.087,-0.397 0.628,-0.68 l -0.107,-0.852 0.292,0.223 c 0,0 1.249,-0.066 1.384,0.181 0.134,0.246 0.572,0.668 0.902,0.829 0.33,0.161 1.092,0.666 1.316,0.762 0.224,0.096 0.695,-0.233 0.852,-0.233 0.156,0 1.255,0.24 0.784,0.886 -0.471,0.647 -0.717,0.96 -0.672,1.117 C 3.966,-1.478 3.706,-0.94 3.03,-0.873 2.354,-0.806 2.039,-0.29 2.039,-0.29 L 0,0 Z"
             style="fill:#ffffff;fill-opacity:1;fill-rule:nonzero;stroke:none"
             id="path610"
             inkscape:connector-curvature="0" />
        </g>
        <g
           id="g612"
           transform="translate(206.5029,513.6017)">
          <path
             d="m 0,0 c 0,0 -1.171,0.473 -1.479,0.54 -0.309,0.067 -1.693,-0.222 -2.129,-0.47 -0.437,-0.248 -0.673,-0.416 -0.74,-0.605 -0.067,-0.19 -0.681,-0.359 -0.681,-0.516 0,-0.157 -0.238,-0.65 -0.26,-0.784 -0.022,-0.135 -0.022,-0.762 0.09,-0.874 0.112,-0.112 0.072,-0.74 0.17,-0.874 0.099,-0.135 0.323,-0.957 0.748,-1.255 0.426,-0.299 1.018,-0.448 1.103,-0.605 0.085,-0.157 0.511,-1.085 0.713,-0.968 0.201,0.116 0.358,0.385 0.627,0.251 0.269,-0.135 0.919,-0.292 1.322,0.09 0.404,0.38 0.824,1.249 1.297,1.477 0.474,0.229 1.011,0.629 1.258,1.256 0.246,0.628 0.56,1.681 0.381,2.286 C 2.24,-0.446 1.666,-0.178 1.404,-0.178 1.143,-0.178 0,0 0,0"
             style="fill:#ffffff;fill-opacity:1;fill-rule:nonzero;stroke:none"
             id="path614"
             inkscape:connector-curvature="0" />
        </g>
        <g
           id="g616"
           transform="translate(207.2326,491.5709)">
          <path
             d="M 0,0 C 0.064,0.238 0.179,0.453 0.239,0.58 0.331,0.776 0.537,1.531 0.533,1.811 0.53,2.098 0.746,2.668 1.052,3.398 1.358,4.127 1.608,6.593 1.608,6.593 L 1.561,6.658 c 1.263,1.016 3.17,2.598 3.634,3.25 0.122,0.17 0.267,0.305 0.424,0.411 l 0.001,0 0.023,-0.033 C 5.847,7.306 2.832,3.109 2.557,2.56 2.361,2.17 2.481,1.459 2.568,1.077 2.604,0.92 2.633,0.819 2.633,0.819 c 0,0 0.597,-0.841 0.601,-1.085 C 3.241,-0.51 2.878,-0.829 2.75,-0.922 2.625,-1.018 2.336,-1.12 2.189,-1.213 2.042,-1.305 1.802,-1.269 1.601,-1.257 1.401,-1.245 1.005,-1.1 1.005,-1.1 c 0,0 -0.429,-0.095 -0.709,-0.058 -0.281,0.036 -0.302,0.36 -0.339,0.746 C -0.057,-0.274 -0.036,-0.133 0,0"
             style="fill:#ffffff;fill-opacity:1;fill-rule:nonzero;stroke:none"
             id="path618"
             inkscape:connector-curvature="0" />
        </g>
      </g>
    </g>
    <g
       id="g620"
       transform="matrix(1.25,0,0,-1.25,-983.82746,955.03621)">
      <path
         d="m 0,0 -7.493,-2.199 -0.028,0.637 0.001,0 0.028,0.481 L 0.035,1.05 0,0 Z"
         style="fill:#ffffff;fill-opacity:1;fill-rule:nonzero;stroke:none"
         id="path622"
         inkscape:connector-curvature="0" />
    </g>
    <g
       transform="matrix(1.25,0,0,-1.25,-1241.2772,1567.0287)"
       id="g624">
      <g
         id="g626"
         clip-path="url(#clipPath628)">
        <g
           id="g632"
           transform="translate(202.8289,494.0732)">
          <path
             d="m 0,0 c -0.595,0.075 -0.493,0.719 -0.493,0.719 0,0 0.25,0.777 0.297,0.902 0.045,0.123 0.044,0.55 0.015,0.79 C -0.21,2.653 0.045,3.248 0.282,3.585 0.521,3.918 0.461,4.749 0.451,4.948 0.441,5.145 0.419,7.247 0.419,7.247 l -0.037,0.02 -0.001,0 C 0.475,7.438 0.564,7.609 0.646,7.78 L 0.699,7.755 C 1.78,7.996 2.728,8.12 3.436,8.184 L 3.446,8.068 C 3.282,5.973 2.792,5.247 2.792,5.247 2.792,5.247 1.779,3.699 1.64,3.503 1.5,3.306 1.53,2.741 1.536,2.602 1.54,2.461 1.442,2.135 1.442,2.135 1.377,1.896 1.571,1.515 1.727,1.313 1.88,1.112 2.114,0.972 2.205,0.761 2.294,0.552 2.045,0.235 1.729,0.074 1.412,-0.085 0.595,-0.075 0,0"
             style="fill:#ffffff;fill-opacity:1;fill-rule:nonzero;stroke:none"
             id="path634"
             inkscape:connector-curvature="0" />
        </g>
        <g
           id="g636"
           transform="translate(199.6389,521.3089)">
          <path
             d="M 0,0 C 0.004,0.28 0.308,1.096 0.332,1.243 0.354,1.391 0.566,2.01 0.715,2.269 0.766,2.359 0.867,2.486 0.984,2.62 l 0,0 c 0.224,0.256 0.503,0.534 0.596,0.608 0.141,0.111 1.041,0.327 1.041,0.327 0,0 1.071,0.111 1.654,-0.488 0,0 0.657,-0.027 0.846,-0.44 C 5.312,2.208 5.674,1.528 5.636,1.331 5.597,1.13 5.477,0.923 5.498,0.813 5.518,0.702 5.454,0.075 5.389,-0.096 5.382,-0.118 5.374,-0.139 5.366,-0.16 5.315,-0.301 5.28,-0.419 5.296,-0.547 5.313,-0.697 5.458,-1.19 5.372,-1.292 5.285,-1.394 5.132,-1.493 5.126,-1.588 5.121,-1.68 5.119,-2.124 4.979,-2.237 4.837,-2.35 4.773,-2.52 4.769,-2.6 4.764,-2.682 4.891,-3.253 4.701,-3.498 4.636,-3.583 4.574,-3.646 4.518,-3.69 l 0,0 C 4.412,-3.775 4.33,-3.789 4.297,-3.742 4.248,-3.676 4.116,-3.928 4.115,-3.909 L 4.056,-4.074 c 0,0 -0.045,-0.407 -0.138,-0.372 -0.091,0.032 -0.24,0.471 -0.24,0.471 l 0.166,0.972 0.122,1.202 0.006,0.056 0.94,1.532 C 4.931,-0.108 4.817,0.45 4.702,0.552 4.587,0.652 4.259,1.022 4.24,1.158 4.222,1.293 4.114,1.743 4.114,1.743 4.114,1.743 3.421,1.18 3.268,1.094 3.114,1.008 2.611,1.107 2.475,1.115 2.342,1.123 2.027,1.034 1.951,0.878 1.874,0.722 1.602,0.238 1.529,0.135 1.456,0.032 1.371,-0.472 1.37,-0.716 1.369,-0.84 1.313,-0.944 1.25,-1.039 1.19,-1.127 1.125,-1.209 1.094,-1.292 1.03,-1.461 1.114,-1.628 1.151,-1.9 1.188,-2.171 1.134,-2.624 1.099,-2.758 1.065,-2.89 0.835,-2.891 0.783,-2.888 0.729,-2.885 0.436,-3.055 0.436,-3.055 c 0,0 0.063,0.375 0.083,0.468 0.019,0.093 -0.231,0.631 -0.288,0.81 C 0.175,-1.599 -0.003,-0.285 0,0"
             style="fill:#ffffff;fill-opacity:1;fill-rule:nonzero;stroke:none"
             id="path638"
             inkscape:connector-curvature="0" />
        </g>
        <g
           id="g640"
           transform="translate(198.9624,490.8839)">
          <path
             d="m 0,0 -0.271,-0.064 0.263,1.887 -0.013,0.001 c 0.008,0.016 0.161,0.274 0.223,0.552 0.072,0.321 0.293,1.12 0.532,1.49 0.238,0.372 0.699,0.408 0.699,0.408 L 1.479,3.788 1.96,0.378 1.871,0.132 0.972,2.463 0,0 Z"
             style="fill:#ffffff;fill-opacity:1;fill-rule:nonzero;stroke:none"
             id="path642"
             inkscape:connector-curvature="0" />
        </g>
        <g
           id="g644"
           transform="translate(201.0094,520.5927)">
          <path
             d="M 0,0 C 0.001,0.244 0.085,0.748 0.158,0.851 0.231,0.954 0.503,1.438 0.58,1.594 0.656,1.751 0.971,1.839 1.105,1.831 1.24,1.823 1.744,1.724 1.898,1.81 2.05,1.896 2.743,2.46 2.743,2.46 2.743,2.46 2.852,2.01 2.87,1.874 2.888,1.738 3.216,1.368 3.332,1.268 3.446,1.166 3.56,0.608 3.541,0.503 L 2.601,-1.029 2.596,-1.084 2.546,-1.079 C 1.784,-1.653 0.858,-1.624 0.858,-1.624 0.261,-1.468 -0.06,-0.333 -0.06,-0.333 l -0.06,0.01 -0.001,0 C -0.057,-0.227 -0.001,-0.124 0,0"
             style="fill:#ffffff;fill-opacity:1;fill-rule:nonzero;stroke:none"
             id="path646"
             inkscape:connector-curvature="0" />
        </g>
      </g>
    </g>
    <g
       id="g648"
       transform="matrix(1.25,0,0,-1.25,-998.20284,954.74008)">
      <path
         d="M 0,0 4.231,0.99 4.503,1.053 6.044,1.413 6.299,1.473 7.23,1.69 11.536,0.813 4.009,-1.318 0,0 Z"
         style="fill:#ffffff;fill-opacity:1;fill-rule:nonzero;stroke:none"
         id="path650"
         inkscape:connector-curvature="0" />
    </g>
    <g
       transform="matrix(1.25,0,0,-1.25,-1241.2772,1567.0287)"
       id="g652">
      <g
         id="g654"
         clip-path="url(#clipPath656)">
        <g
           id="g660"
           transform="translate(198.2488,496.1199)">
          <path
             d="M 0,0 C 0.005,0.4 0.357,0.855 0.62,1.429 0.739,1.691 0.961,2.389 1.165,3.072 1.41,3.887 1.634,4.681 1.634,4.681 1.753,5.672 1.923,6.398 2.104,6.933 2.49,8.075 2.924,8.342 3.019,8.428 3.16,8.553 3.371,9.207 3.371,9.207 L 3.362,9.285 5.931,9.593 c 0,0 0.175,0.043 0.392,0.125 L 6.466,9.651 5.642,7.889 C 5.699,7.266 5.454,6.497 5.076,5.712 4.99,5.532 4.896,5.351 4.797,5.172 3.869,3.475 2.506,1.853 2.442,1.651 2.342,1.332 2.301,1.093 2.559,0.003 2.713,-0.653 2.47,-1.149 2.251,-1.442 L 2.192,-1.448 2.147,-0.962 c 0,0 -0.461,-0.036 -0.7,-0.408 C 1.209,-1.74 0.987,-2.539 0.916,-2.86 0.854,-3.138 0.701,-3.396 0.692,-3.412 L 0.691,-3.413 C 0.402,-3.421 0.429,-3.015 0.429,-3.015 l -0.105,1.74 C 0.228,-1.203 0.159,-1.121 0.109,-1.032 -0.072,-0.714 -0.004,-0.313 0,0"
             style="fill:#ffffff;fill-opacity:1;fill-rule:nonzero;stroke:none"
             id="path662"
             inkscape:connector-curvature="0" />
        </g>
        <g
           id="g664"
           transform="translate(198.8623,502.4803)">
          <path
             d="M 0,0 -0.001,0 0.001,0.002 C 0.001,0.001 0,0.001 0,0"
             style="fill:#8cb8d9;fill-opacity:1;fill-rule:nonzero;stroke:none"
             id="path666"
             inkscape:connector-curvature="0" />
        </g>
        <g
           id="g668"
           transform="translate(198.8615,502.4805)">
          <path
             d="M 0,0 C 0,-0.001 -0.001,-0.001 -0.001,-0.001 L 0,0 Z"
             style="fill:#8cb8d9;fill-opacity:1;fill-rule:nonzero;stroke:none"
             id="path670"
             inkscape:connector-curvature="0" />
        </g>
        <g
           id="g672"
           transform="translate(196.9678,500.2094)">
          <path
             d="M 0,0 C -0.398,0.342 0.178,0.251 0.098,0.429 0.017,0.606 0.216,0.586 0.341,0.56 0.465,0.535 0.741,0.137 0.775,0.087 0.81,0.041 1.131,0.259 1.188,0.301 1.245,0.343 1.271,0.575 1.268,0.682 1.265,0.793 1.444,1.548 1.486,1.665 1.539,1.801 1.513,1.754 1.893,2.27 l 0,0 c 0,0 10e-4,0 10e-4,10e-4 l 0.001,0 c 0.013,0.01 0.093,0.081 0.48,0.436 0.557,0.511 0.986,0.145 0.986,0.145 L 3.385,2.844 C 3.204,2.309 3.034,1.582 2.915,0.592 c 0,0 -0.223,-0.794 -0.468,-1.61 L 2.427,-1.012 2.162,-1.441 1.911,-1.79 c -0.251,-0.348 -0.405,0.136 -0.405,0.136 -0.058,0.079 0.099,0.576 0.187,0.716 0.043,0.066 0.088,0.287 0.124,0.503 L 1.762,-0.431 C 1.581,-0.724 1.206,-0.754 0.982,-0.701 0.758,-0.654 0.396,-0.343 0.396,-0.343 L 0,0 Z"
             style="fill:#ffffff;fill-opacity:1;fill-rule:nonzero;stroke:none"
             id="path674"
             inkscape:connector-curvature="0" />
        </g>
        <g
           id="g676"
           transform="translate(198.8607,502.4791)">
          <path
             d="M 0,0 C -0.001,-0.001 -0.001,-0.001 0,0.001 L 0,0 Z"
             style="fill:#8cb8d9;fill-opacity:1;fill-rule:nonzero;stroke:none"
             id="path678"
             inkscape:connector-curvature="0" />
        </g>
        <g
           id="g680"
           transform="translate(194.9082,515.3617)">
          <path
             d="m 0,0 c 0.052,0.372 0.357,0.898 0.521,0.96 0.166,0.059 0.575,0.338 1.371,0.149 0,0 0.306,-0.27 0.364,-0.317 C 2.314,0.749 2.582,0.664 2.745,0.524 2.908,0.38 2.93,0.239 2.936,0.188 2.944,0.136 3.149,-0.156 3.176,-0.199 3.204,-0.242 3.384,-0.757 3.389,-0.849 3.394,-0.939 3.48,-1.358 3.476,-1.42 3.473,-1.477 3.633,-2.002 3.474,-2.135 3.293,-2.285 3.512,-3.531 3.325,-3.625 3.1,-3.961 2.919,-4.488 2.577,-4.59 1.768,-4.829 0.731,-4.583 0.731,-4.583 l 0.171,1.733 c -0.033,0.129 -0.075,0.256 -0.123,0.364 -0.17,0.383 -0.235,0.8 -0.222,1.009 0.013,0.213 -0.12,0.542 -0.259,0.724 C 0.157,-0.572 -0.053,-0.369 0,0"
             style="fill:#ffffff;fill-opacity:1;fill-rule:nonzero;stroke:none"
             id="path682"
             inkscape:connector-curvature="0" />
        </g>
        <g
           id="g684"
           transform="translate(193.7012,503.4127)">
          <path
             d="m 0,0 -0.369,-0.11 -0.259,0.727 c 0.113,0.206 1.022,0.065 1.107,0.139 0.113,0.102 0.382,-0.03 0.417,0.1 0.033,0.135 0.193,0.098 0.361,0.222 0.17,0.124 0.205,0.256 0.313,0.276 0.11,0.02 0.28,0.171 0.312,0.25 0.031,0.08 0.275,0.121 0.413,0.163 0.137,0.048 0.613,0.342 0.752,0.44 C 3.188,2.306 3.322,2.298 3.454,2.266 3.587,2.228 3.626,1.984 3.626,1.984 3.542,1.478 3.18,1.258 3.18,1.258 3.18,1.258 3.166,0.588 3.15,0.321 3.134,0.051 2.682,0.158 2.682,0.158 c 0,0 -0.152,-0.314 -0.287,-0.334 C 2.258,-0.194 2.114,-0.346 2.005,-0.366 1.897,-0.387 1.698,-0.537 1.53,-0.637 1.363,-0.734 0.58,-0.419 0.58,-0.419 L 0,0 Z"
             style="fill:#ffffff;fill-opacity:1;fill-rule:nonzero;stroke:none"
             id="path686"
             inkscape:connector-curvature="0" />
        </g>
        <g
           id="g688"
           transform="translate(194.4946,518.7876)">
          <path
             d="m 0,0 c -0.315,-0.005 -0.458,0.18 -0.502,0.272 -0.044,0.088 0.399,0.271 0.399,0.271 0,0 0.486,0.286 0.976,0.325 C 0.954,0.875 1.028,0.882 1.098,0.889 1.448,0.924 1.673,0.944 2,0.744 l 0.395,-0.241 0.077,-0.009 10e-4,0 C 2.421,0.585 2.377,0.663 2.369,0.685 2.347,0.741 2.309,0.831 2.39,0.944 2.47,1.055 2.669,0.969 2.693,0.949 2.716,0.931 2.831,0.786 2.991,0.661 3.149,0.532 3.125,0.653 3.262,0.057 3.291,-0.067 3.298,-0.167 3.288,-0.249 3.244,-0.557 2.911,-0.553 2.486,-0.759 c -0.54,-0.263 -1.067,0.026 -1.067,0.026 0,0 -0.812,0.765 -0.863,0.843 C 0.505,0.185 0.418,0.178 0.346,0.096 0.272,0.014 0.315,0.006 0,0"
             style="fill:#ffffff;fill-opacity:1;fill-rule:nonzero;stroke:none"
             id="path690"
             inkscape:connector-curvature="0" />
        </g>
      </g>
    </g>
    <g
       id="g692"
       transform="matrix(1.25,0,0,-1.25,-998.20284,954.74008)">
      <path
         d="m 0,0 4.009,-1.318 -0.029,-0.48 0,-0.169 0.028,-0.099 -0.035,-0.326 -4.01,1.315 L -0.001,0 0,0 Z"
         style="fill:#ffffff;fill-opacity:1;fill-rule:nonzero;stroke:none"
         id="path694"
         inkscape:connector-curvature="0" />
    </g>
    <g
       transform="matrix(1.25,0,0,-1.25,-1241.2772,1567.0287)"
       id="g696">
      <g
         id="g698"
         clip-path="url(#clipPath700)">
        <g
           id="g704"
           transform="translate(194.536,510.6172)">
          <path
             d="m 0,0 c -0.195,0.145 -0.995,-0.055 -1.092,0.193 -0.096,0.246 -0.244,0.306 -0.766,0.679 -0.521,0.376 0.045,0.849 0.178,0.881 0.134,0.033 0.079,0.119 0.079,0.119 10e-4,0.065 0.117,0.217 0.309,0.397 0.192,0.178 0.107,0.155 0.149,0.716 0.041,0.549 0.298,0.683 0.298,0.683 -0.126,0.631 0.194,1.117 0.194,1.117 -0.007,0.374 0.574,0.729 0.574,0.729 0.323,0.666 0.951,0.404 0.951,0.404 0.31,0.133 0.521,0.229 0.521,0.229 0,0 0.303,-0.023 0.417,0.02 0.113,0.045 0.378,0.091 0.527,0.053 0,0 0.238,0.014 0.395,-0.237 0,0 0.346,-0.029 0.395,-0.211 0.05,-0.187 0.467,-0.098 0.411,-0.519 0,0 0.242,-0.338 0.251,-0.531 C 3.798,4.548 4.086,4.605 4.171,4.271 4.179,4.235 4.186,4.197 4.19,4.153 c 0,0 0.07,-0.36 0.142,-0.492 C 4.406,3.523 4.336,3.387 4.375,3.365 4.414,3.344 4.694,3.124 4.688,3.023 4.682,2.923 4.638,2.705 4.638,2.705 c 0,0 0.258,-0.26 0.17,-0.535 C 4.72,1.893 5.008,1.631 4.649,1.363 4.332,1.12 4.226,1.003 4.253,0.955 4.175,1.006 3.869,1.094 3.869,1.094 c 0,0 -0.117,0.04 -0.213,0.093 C 3.561,1.239 3.485,1.336 3.466,1.372 3.43,1.442 3.313,1.462 3.343,2.145 L 3.29,2.246 C 3.478,2.341 3.665,2.46 3.846,2.609 4.006,2.743 3.845,3.267 3.848,3.324 3.852,3.387 3.767,3.806 3.761,3.895 3.758,3.961 3.666,4.24 3.603,4.411 3.577,4.481 3.557,4.533 3.549,4.545 3.521,4.588 3.316,4.881 3.309,4.932 3.302,4.983 3.28,5.125 3.117,5.268 2.954,5.408 2.686,5.494 2.628,5.537 2.571,5.583 2.265,5.853 2.265,5.853 1.468,6.043 1.059,5.764 0.893,5.705 0.729,5.643 0.424,5.117 0.372,4.745 0.319,4.375 0.529,4.172 0.67,3.991 0.809,3.81 0.942,3.48 0.929,3.268 0.917,3.059 0.982,2.641 1.151,2.259 1.199,2.15 1.241,2.024 1.274,1.895 1.359,1.568 1.389,1.225 1.325,1.107 1.233,0.94 1.21,0.546 1.198,0.356 1.187,0.165 0.854,-0.015 0.821,-0.052 0.821,-0.052 0.194,-0.143 0,0"
             style="fill:#ffffff;fill-opacity:1;fill-rule:nonzero;stroke:none"
             id="path706"
             inkscape:connector-curvature="0" />
        </g>
        <g
           id="g708"
           transform="translate(187.4849,521.3938)">
          <path
             d="M 0,0 C -0.134,0.353 0.562,0.761 0.561,0.779 0.532,1.216 1.118,1.181 1.118,1.181 1.14,1.543 1.874,1.431 1.874,1.431 2.219,1.856 2.219,1.869 2.219,1.869 2.596,2.074 3.961,1.925 3.961,1.925 4.927,2.082 4.983,1.689 4.983,1.689 5.664,1.632 5.905,1.351 5.905,1.351 6.102,1.513 6.383,1.241 6.383,1.241 6.993,1.08 7.069,0.581 7.069,0.581 7.796,0.364 7.459,-0.101 7.459,-0.101 7.88,-0.49 7.479,-0.68 7.459,-0.774 7.441,-0.866 7.443,-1.041 7.063,-1.099 6.939,-1.117 6.797,-1.077 6.653,-1.013 6.351,-0.877 6.04,-0.63 5.869,-0.583 5.617,-0.515 5.658,-0.399 5.658,-0.399 5.492,-0.361 5.514,-0.514 5.433,-0.272 l -0.109,0.018 c 0,0 0.041,-0.434 -0.144,-0.613 C 4.994,-1.043 4.928,-1.039 4.806,-1.032 4.685,-1.025 4.415,-1.29 4.247,-1.39 4.079,-1.487 3.997,-1.521 3.902,-1.529 3.808,-1.536 3.607,-1.955 3.389,-1.793 c 0,0 -0.163,0.197 -0.307,0.058 C 2.94,-1.873 2.599,-1.963 2.377,-1.84 2.155,-1.719 1.809,-1.672 1.739,-1.479 1.695,-1.357 1.37,-1.251 1.135,-1.1 l -0.06,-0.03 c -0.144,0.295 -0.362,0.572 -0.666,0.808 -0.141,0.109 -0.288,0.198 -0.434,0.271 L 0,-0.001 0,0 Z"
             style="fill:#ffffff;fill-opacity:1;fill-rule:nonzero;stroke:none"
             id="path710"
             inkscape:connector-curvature="0" />
        </g>
        <g
           id="g712"
           transform="translate(189.4368,513.9091)">
          <path
             d="M 0,0 C -0.01,0.39 0.164,0.722 0.262,0.879 0.422,1.135 0.886,1.21 0.886,1.21 L 1.321,1.095 1.748,0.981 2.011,1.014 c 0,0 0.653,-0.099 0.733,-0.104 C 2.825,0.905 3.418,0.796 3.418,0.796 3.475,0.631 3.125,0.512 3.125,0.512 L 2.492,0.408 2.688,0.086 C 2.884,-0.234 2.452,-0.49 2.452,-0.49 2.577,-1.098 2.189,-1.282 2.189,-1.282 1.593,-1.683 1.019,-1.335 0.599,-1.096 0.494,-1.036 0.4,-0.983 0.316,-0.95 -0.105,-0.784 0.009,-0.391 0,0"
             style="fill:#ffffff;fill-opacity:1;fill-rule:nonzero;stroke:none"
             id="path714"
             inkscape:connector-curvature="0" />
        </g>
        <g
           id="g716"
           transform="translate(188.2427,517.7719)">
          <path
             d="m 0,0 c 0.174,0.251 0.333,0.549 0.434,0.87 0.16,0.508 0.142,1.094 -0.117,1.622 l 0.06,0.03 C 0.612,2.371 0.937,2.265 0.982,2.142 1.051,1.95 1.397,1.903 1.619,1.782 1.841,1.659 2.182,1.748 2.324,1.887 2.469,2.026 2.631,1.829 2.631,1.829 2.85,1.667 3.05,2.086 3.145,2.093 3.239,2.101 3.321,2.135 3.489,2.232 3.657,2.332 3.928,2.597 4.048,2.59 4.17,2.582 4.236,2.579 4.422,2.755 4.607,2.934 4.566,3.368 4.566,3.368 L 4.709,3.46 c 0.01,-0.015 0.084,-0.199 0.25,-0.238 0,0 -0.099,-0.115 0.152,-0.183 0.171,-0.047 0.483,-0.294 0.784,-0.43 l 0,0 -0.019,-0.042 c 0,0 -0.077,-0.082 -0.151,-0.278 C 5.653,2.091 5.255,1.165 5.168,0.727 5.08,0.29 4.778,0.63 4.778,0.63 4.766,0.616 4.645,0.472 4.565,0.42 4.48,0.366 4.238,0.359 4.238,0.359 c 0,0 -0.132,-0.174 -0.193,-0.19 C 3.983,0.154 3.854,0.018 3.849,-0.061 3.844,-0.14 3.838,-0.242 3.655,-0.271 3.471,-0.301 2.964,-0.029 2.964,-0.029 L 2.194,0.389 2.084,0.449 0.13,-0.058 0,0 Z"
             style="fill:#ffffff;fill-opacity:1;fill-rule:nonzero;stroke:none"
             id="path718"
             inkscape:connector-curvature="0" />
        </g>
        <g
           id="g720"
           transform="translate(185.3961,498.4722)">
          <path
             d="M 0,0 C -0.023,0.721 0.068,1.363 0.215,1.93 0.364,2.505 0.57,3.002 0.77,3.425 1.171,4.26 1.984,4.805 1.984,4.805 4.722,3.804 4.385,3.125 4.357,2.67 4.33,2.213 3.381,2.084 3.381,2.084 3.365,1.831 3.081,1.216 2.897,0.839 2.806,0.654 2.74,0.527 2.74,0.527 L 2.349,-0.268 c 0,0 -0.54,-1.279 -0.577,-1.538 -0.035,-0.261 0.415,-0.318 0.584,-0.358 0.169,-0.04 0.665,-0.353 0.722,-0.406 0.057,-0.054 0.375,-0.346 0.399,-0.416 0.027,-0.074 0.151,-0.173 0.151,-0.173 0.128,-0.056 0.379,-0.245 0.379,-0.245 0,0 0.574,-0.709 0.63,-0.772 0.057,-0.063 0.11,-0.169 0.067,-0.227 C 4.661,-4.46 4.539,-4.474 4.539,-4.474 l -0.768,0.49 -0.563,0.215 C 3.46,-3.966 3.73,-4.496 3.73,-4.496 c 0,0 0.186,-0.435 0.275,-0.652 C 4.09,-5.365 3.967,-5.419 3.864,-5.461 3.76,-5.508 3.6,-5.324 3.6,-5.324 L 3.279,-4.782 2.666,-3.966 2.791,-4.34 2.923,-4.669 3.081,-5.214 c 0,0 0.109,-0.38 0.144,-0.474 C 3.26,-5.78 3.185,-5.835 3.133,-5.881 3.079,-5.93 2.891,-5.839 2.891,-5.839 L 2.274,-4.551 C 2.273,-4.562 2.265,-4.688 2.256,-4.841 2.246,-5.003 1.874,-5.161 1.802,-5.177 1.731,-5.191 1.618,-5.228 1.541,-5.322 1.464,-5.419 1.398,-5.366 1.398,-5.366 c -0.148,0.08 -0.073,0.298 -0.051,0.335 0.022,0.041 0.242,0.16 0.296,0.218 0.054,0.057 -0.051,0.335 -0.086,0.416 -0.036,0.083 -0.405,0.317 -0.453,0.361 -0.047,0.042 -0.461,0.391 -0.461,0.391 -0.344,0.283 -0.49,1.035 -0.562,1.911 l 0,0 C 0.034,-1.176 0.018,-0.568 0,0"
             style="fill:#ffffff;fill-opacity:1;fill-rule:nonzero;stroke:none"
             id="path722"
             inkscape:connector-curvature="0" />
        </g>
        <g
           id="g724"
           transform="translate(181.575,517.9773)">
          <path
             d="M 0,0 C -0.638,0.806 -0.152,1.504 0.754,2.498 1.561,3.381 4.01,3.63 4.553,3.672 L 4.554,3.691 C 4.799,3.684 5.341,3.637 5.884,3.366 6.031,3.293 6.178,3.203 6.319,3.094 6.622,2.858 6.841,2.581 6.985,2.287 7.243,1.759 7.261,1.173 7.101,0.664 7.001,0.343 6.842,0.045 6.668,-0.205 6.414,-0.571 6.131,-0.835 5.958,-0.922 5.666,-1.065 5.38,-1.13 5.234,-1.565 5.087,-1.999 4.865,-2.994 4.397,-3.411 c 0,0 -0.074,-0.021 -0.026,-0.222 0.014,-0.058 0.039,-0.132 0.079,-0.226 0.177,-0.413 0.755,-1.537 0.744,-2.385 -0.01,-0.848 0.143,-1.662 0.346,-2.32 0.203,-0.658 0.599,-1.449 0.76,-1.459 0.16,-0.009 0.477,-0.107 0.592,-0.239 0.112,-0.126 0.546,-0.313 0.664,-0.361 0.072,-0.028 0.243,-0.107 0.277,-0.195 0.022,-0.059 -0.014,-0.12 -0.177,-0.174 -0.413,-0.138 -0.77,-0.035 -0.77,-0.035 0,0 -0.215,0.123 -0.286,0.119 -0.07,-0.006 -0.167,-0.102 -0.23,-0.137 -0.057,-0.034 -0.298,-0.101 -0.389,-0.218 0,-10e-4 0,-10e-4 0,-10e-4 -0.018,-0.05 -0.12,-0.316 -0.144,-0.407 -0.025,-0.099 -0.086,-0.438 -0.095,-0.578 -0.008,-0.141 0.003,-0.325 -0.103,-0.378 0,0 -0.253,-0.186 -0.395,-0.199 -0.142,-0.01 -0.385,-0.036 -0.52,0.073 -0.135,0.109 -0.285,0.3 -0.419,0.406 -0.029,0.024 -0.059,0.056 -0.088,0.095 -0.113,0.147 -0.217,0.403 -0.164,0.751 0.066,0.44 0.329,0.785 0.335,0.888 0.006,0.099 -0.482,1.381 -0.482,1.381 0,0 -0.747,1.011 -0.872,1.262 -0.096,0.185 -0.52,0.649 -0.804,1.729 -0.097,0.37 -0.178,0.811 -0.223,1.338 0,0 -0.106,0.306 -0.081,0.872 0.005,0.122 0.017,0.256 0.036,0.402 0.108,0.821 0.073,1.893 0.086,2.095 0.002,0.048 0.012,0.146 0.028,0.275 L 1.983,-1.247 C 1.323,-1.491 0.637,-0.804 0,0"
             style="fill:#ffffff;fill-opacity:1;fill-rule:nonzero;stroke:none"
             id="path726"
             inkscape:connector-curvature="0" />
        </g>
        <g
           id="g728"
           transform="translate(179.521,490.1036)">
          <path
             d="m 0,0 c -0.006,0.051 -0.589,1.058 -0.628,1.303 -0.039,0.244 0.402,1.323 0.619,1.792 0.216,0.473 0.22,0.983 0.236,1.253 0.016,0.266 0.244,0.47 0.244,0.47 L 0.513,4.869 C 0.533,4.849 0.555,4.83 0.577,4.811 1.627,3.915 2.534,2.89 3.763,2.306 4.993,1.717 7.7,0.644 7.99,0.544 8.05,0.523 8.164,0.48 8.308,0.422 L 8.313,0.436 8.895,0.382 c 2.39,-0.089 2.506,0.951 2.965,1.896 0.059,0.12 0.102,0.234 0.132,0.342 l 0.09,-0.026 c 0,0 0.271,-0.339 0.556,-0.819 0.283,-0.482 0.113,-1.461 0.083,-1.801 C 12.692,-0.369 12.476,-0.405 12,-0.951 11.523,-1.5 10.426,-1.291 9.92,-1.151 9.413,-1.01 8.228,-0.758 7.557,-0.685 6.884,-0.618 5.532,0.201 5.196,0.353 4.862,0.504 3.307,1.809 3.126,1.981 2.944,2.153 2.506,2.248 2.326,2.283 2.146,2.314 1.009,1.512 0.914,1.447 0.819,1.381 0.67,1.262 0.622,1.131 0.574,1.005 0.63,0.93 0.684,0.805 0.737,0.68 0.868,0.684 0.968,0.647 1.065,0.612 1.254,0.548 1.362,0.513 1.471,0.475 1.166,0.11 1.104,0.083 1.042,0.057 1.056,-0.054 1.051,-0.134 1.047,-0.214 0.882,-0.258 0.82,-0.272 0.759,-0.289 0.579,-0.258 0.529,-0.264 0.477,-0.272 0.228,-0.237 0.198,-0.225 0.169,-0.216 0.007,-0.053 0,0"
             style="fill:#ffffff;fill-opacity:1;fill-rule:nonzero;stroke:none"
             id="path730"
             inkscape:connector-curvature="0" />
        </g>
        <g
           id="g732"
           transform="translate(217.7757,512.7318)">
          <path
             d="m 0,0 c 0.52,-1.299 0.851,-3.103 1.138,-5.57 0.55,-4.746 -0.691,-9 -1.077,-10.573 -0.386,-1.573 0.24,-3.808 0.945,-3.985 0,0 -2.703,-0.296 -3.861,-0.251 -0.49,0.017 -0.546,0.011 -1.089,0.036 -1.885,0.082 -3.823,0.186 -3.941,0.274 m -26.113,19.072 c 0,0 -1.993,-0.311 -4.124,-0.187 -0.549,0.032 -1.109,0.092 -1.645,0.195 -0.3,0.057 -0.593,0.127 -0.873,0.213 l 0,0 c -0.148,0.045 -0.293,0.094 -0.433,0.148 0,0 -0.894,-0.325 -1.172,-2.596 0,0 -0.113,-2.243 -0.403,-3.138 -0.55,-1.176 -1.753,-2.401 -1.753,-2.401 0,0 -0.327,-0.363 0.072,-0.722 l 0.87,-0.602 m 1.53,-0.635 c -0.035,-0.017 -1.335,0.288 -1.381,0.461 0,0 -0.045,0.101 0.025,0.166 0.072,0.063 0.289,0.304 0.364,0.436 0.031,0.054 0.045,0.079 0.175,0.363 0.186,0.405 0.499,1.098 0.499,1.098 0.27,0.701 0.225,0.825 0.225,0.825 l 0.301,3.832 c 0.044,1.738 1.065,2.716 1.065,2.716 m 20.046,7.048 c 0,0 -0.11,0.184 -0.197,0.335 -0.052,0.091 -0.097,0.17 -0.105,0.191 -0.022,0.057 -0.059,0.147 0.022,0.259 0.08,0.112 0.279,0.025 0.303,0.006 0.023,-0.019 0.137,-0.163 0.298,-0.288 0.158,-0.129 0.134,-0.009 0.271,-0.605 0.029,-0.124 0.036,-0.224 0.026,-0.306 -0.044,-0.308 -0.409,-0.249 -0.802,-0.511 -0.507,-0.338 -1.068,0.026 -1.068,0.026 0,0 -0.812,0.766 -0.864,0.844 -0.051,0.075 -0.138,0.068 -0.21,-0.014 -0.074,-0.082 -0.03,-0.09 -0.346,-0.096 -0.315,-0.005 -0.458,0.18 -0.502,0.272 -0.044,0.088 0.4,0.271 0.4,0.271 0,0 0.486,0.286 0.976,0.325 0.081,0.007 0.155,0.015 0.225,0.021 0.351,0.035 0.575,0.056 0.902,-0.144 l 0.455,-0.27 m 6.355,-17.533 c 0,0 -0.031,-2.531 -0.02,-2.727 0.01,-0.2 0.069,-1.032 -0.169,-1.365 -0.238,-0.337 -0.493,-0.933 -0.464,-1.174 0.029,-0.241 0.029,-0.667 -0.015,-0.791 -0.047,-0.125 -0.298,-0.902 -0.298,-0.902 0,0 -0.102,-0.645 0.494,-0.72 0.595,-0.076 1.413,-0.085 1.73,0.074 0.316,0.161 0.565,0.479 0.476,0.687 -0.09,0.211 -0.325,0.351 -0.478,0.553 -0.156,0.202 -0.35,0.583 -0.285,0.823 0,0 0.098,0.325 0.094,0.467 -0.006,0.139 -0.036,0.704 0.104,0.902 0.139,0.195 1.152,1.744 1.152,1.744 0,0 0.491,0.727 0.655,2.824 m -2.896,-0.331 c 1.14,0.254 2.139,0.385 2.886,0.452 l 0,10e-4 c 0.882,0.079 1.414,0.071 1.414,0.071 m -12.002,-2.15 c -0.079,-1.166 -0.166,-2.009 -0.166,-2.009 -0.179,-1.644 -1.031,-3.777 -1.031,-3.777 0,0 0.889,0.03 1.711,0.303 0.825,0.275 1.349,0.915 2.13,0.465 m -6.78,1.668 c 0,0 2.212,-2.344 2.933,-2.428 m 21.687,-1.998 c 0,0 -2.376,0.456 -2.472,4.258 M -18.73,7.839 -18.337,6.322 m -8.256,-4.158 0.263,0.033 c 0,0 0.653,-0.099 0.733,-0.104 0.082,-0.005 0.674,-0.114 0.674,-0.114 0.057,-0.165 -0.293,-0.284 -0.293,-0.284 l -0.633,-0.105 0.196,-0.322 c 0.197,-0.32 -0.236,-0.576 -0.236,-0.576 0.125,-0.609 -0.263,-0.793 -0.263,-0.793 -0.596,-0.401 -1.171,-0.053 -1.591,0.187 -0.105,0.059 -0.199,0.113 -0.283,0.146 -0.422,0.166 -0.307,0.559 -0.316,0.95 -0.011,0.391 0.151,0.732 0.262,0.879 0.109,0.148 0.624,0.332 0.624,0.332 l 0.435,-0.115 0.428,-0.114 0.011,-0.003 c 0,0 0.199,-0.309 0.107,-0.369 -0.093,-0.064 -0.43,-0.212 -0.573,-0.135 l -0.145,0.075 m 5.911,-10.019 c 0,0 -0.451,0.12 -0.558,0.304 m 7.261,15.829 c 0,0 0.391,-0.234 0.796,-0.241 m -2.43,0.927 c 0,0 0.391,-0.235 0.796,-0.242 m -9.787,-1.139 0.667,-0.446 m 20.882,-9.634 c -6.228,1.667 -2.162,5.767 -1.523,6.367 m 0.689,-6.815 -0.987,-3.873 m -8.459,3.041 1.093,0.227 m -0.617,-0.166 0.125,-0.139 m -0.982,12.004 -0.042,-0.186 m -1.499,0.75 -0.017,-0.122 m -9.044,-1.275 -0.103,-0.153 m 3.462,-14.954 -0.144,-0.122 m 0.294,10.965 0.05,-0.075 m -0.514,-0.166 c 0,0 0.46,0.622 0.684,0.443 m 0.967,-1.553 c 0,0 0.422,0.092 0.657,0.254 m 3.935,5.692 c 0,0 -0.02,-0.071 0.248,-0.087 m -0.514,-0.271 c 0,0 0.171,-0.145 0.416,-0.159 m -3.44,-19.174 c 0,0 -0.028,-0.24 -0.069,-0.485 -0.036,-0.217 -0.081,-0.438 -0.124,-0.504 -0.088,-0.14 -0.246,-0.638 -0.187,-0.716 0,0 0.154,-0.485 0.404,-0.136 l 0.252,0.349 0.266,0.429 m -0.658,1.849 c -0.016,-0.149 -0.144,-0.691 0.184,-0.741 0,0 0.309,-0.007 0.326,0.3 0.019,0.305 0.163,0.452 0.201,0.579 m 0.88,1.88 c 0,0 -0.429,0.366 -0.986,-0.146 -0.387,-0.355 -0.467,-0.426 -0.481,-0.436 l 0,0 c 0,-0.001 -0.001,-0.001 -0.001,-0.001 l 0,0 c -0.001,-10e-4 -0.001,-10e-4 0,0 l 0.001,0.001 0.002,0.002 0,0.001 m 0,-0.001 c -0.001,-10e-4 -0.002,-10e-4 -0.002,-0.002 m -0.001,-0.001 c -0.38,-0.516 -0.354,-0.47 -0.407,-0.605 -0.042,-0.117 -0.221,-0.873 -0.218,-0.984 0.002,-0.108 -0.024,-0.339 -0.081,-0.382 -0.056,-0.041 -0.378,-0.26 -0.413,-0.213 -0.034,0.05 -0.309,0.448 -0.434,0.473 -0.126,0.026 -0.324,0.046 -0.244,-0.131 0.081,-0.178 -0.495,-0.087 -0.097,-0.429 l 0.396,-0.343 c 0,0 0.362,-0.311 0.587,-0.359 0.224,-0.053 0.599,-0.023 0.78,0.271 m 1.247,5.586 c 0,0 -2.207,-0.889 -1.306,-2.935 m 0.271,2.237 c 0,0 -0.11,1.36 -0.077,1.897 0.017,0.294 0.332,1.769 0.613,3.042 m 5.362,-2.14 0.265,0.16 M -6.84,-18.8 c 0,0 1.135,-1.28 2.051,-1.493 M -8.897,0.092 c 0.005,0.098 0.843,2.708 2.465,3.378 0.595,0.343 1.288,0.054 1.288,0.054 0.343,-0.148 1.325,0.229 2.442,-0.628 l 0.897,0.28 C -0.268,3.42 0.492,2.093 0.492,1.271 0.492,0.45 -0.629,-0.596 -0.629,-0.596 L -1.774,-1.53 c -0.316,-0.562 -1.504,-1.173 -1.866,-1.421 -0.546,-0.376 -1.128,-0.441 -1.698,-0.321 -1.788,0.371 -3.447,2.548 -3.447,2.548 m -4.507,2.302 c 0,0 0.428,0.553 1.086,0.843 0.157,0.069 3.285,1.709 6.108,1.199 m 2.968,-14.079 c 0,0 -1.03,0.131 -1.785,-0.385 l 0,-0.001 c -0.156,-0.106 -0.302,-0.241 -0.424,-0.412 -0.465,-0.651 -2.373,-2.234 -3.636,-3.251 -0.42,-0.339 -0.77,-0.615 -0.97,-0.773 -0.108,-0.085 -0.479,-0.643 -0.479,-0.643 0,0 0.438,7.073 5.077,12.61 m -3.581,-11.26 c 0,0 -0.25,-2.467 -0.556,-3.197 -0.307,-0.729 -0.522,-1.301 -0.519,-1.587 0.004,-0.281 -0.202,-1.036 -0.295,-1.232 -0.06,-0.127 -0.175,-0.342 -0.239,-0.581 -0.036,-0.133 -0.057,-0.274 -0.043,-0.411 0.037,-0.387 0.059,-0.711 0.339,-0.747 0.281,-0.038 0.71,0.058 0.71,0.058 0,0 0.396,-0.145 0.596,-0.157 0.202,-0.012 0.442,-0.048 0.588,0.043 0.148,0.094 0.436,0.196 0.562,0.291 0.127,0.094 0.491,0.413 0.484,0.657 -0.004,0.245 -0.601,1.086 -0.601,1.086 0,0 -0.03,0.101 -0.066,0.259 -0.086,0.382 -0.206,1.093 -0.011,1.483 0.276,0.55 3.292,4.75 3.088,7.731 m -4.701,7.145 c -0.034,-0.239 -0.398,-1.589 -0.435,-1.871 -0.037,-0.28 -0.073,-0.563 0.066,-0.911 0.141,-0.354 0.331,-1.233 0.308,-1.616 -0.023,-0.38 -0.204,-1.401 -0.341,-1.977 -0.025,-0.108 -0.046,-0.196 -0.063,-0.268 l -0.072,-0.311 -0.508,-1.089 c 0,0 -0.841,-1.628 -0.984,-2.003 -0.145,-0.377 -0.827,-1.648 -0.126,-3.445 l 0.279,-1.024 c 0.475,-1.482 0.643,-1.613 1.181,-1.702 m -6.094,18.031 c 0,0 -0.221,0.16 -0.158,0.387 0.063,0.227 -0.175,0.653 0.011,0.755 0.125,0.069 0.141,0.401 0.286,0.645 0.072,0.122 0.177,0.222 0.343,0.256 0.499,0.099 0.298,0.572 0.664,0.682 0.37,0.109 0.697,0.384 0.829,0.376 0.131,-0.008 0.604,0.192 0.737,0.22 0.06,0.01 0.22,0.036 0.387,0.053 0.2,0.022 0.409,0.032 0.469,-0.006 0.064,-0.043 0.309,-0.156 0.537,-0.245 0.167,-0.065 0.324,-0.119 0.394,-0.123 0.164,-0.01 0.79,-0.262 0.903,-0.269 0.117,-0.007 0.492,-0.03 0.45,-0.176 -0.043,-0.144 -0.131,-0.27 -0.052,-0.307 0.081,-0.038 0.319,-0.168 0.298,-0.248 -0.021,-0.082 -0.147,-0.256 -0.119,-0.353 0.027,-0.102 0.269,-0.444 0.311,-0.563 0.043,-0.116 0.064,-0.298 -0.022,-0.374 -0.088,-0.079 -0.173,-0.14 -0.112,-0.207 0.061,-0.071 0.019,-0.232 -0.05,-0.295 -0.069,-0.061 -0.163,-0.236 -0.232,-0.316 -0.071,-0.076 -0.271,-0.409 -0.375,-0.484 -0.102,-0.077 -0.396,-0.043 -0.436,-0.171 -0.041,-0.131 -0.444,-0.253 -0.542,-0.247 -0.097,0.006 -0.61,-0.325 -0.697,-0.122 -0.086,0.201 -0.082,0.547 -0.041,0.676 0.041,0.127 0.195,0.232 0.234,0.331 0.038,0.095 0.031,0.242 -0.016,0.296 -0.045,0.051 -0.297,0.265 -0.087,0.479 0.211,0.22 0.619,0.982 0.697,1.193 0.078,0.209 0.009,0.425 -0.037,0.478 -0.047,0.051 -0.571,0.345 -0.652,0.382 -0.08,0.038 -0.744,0.178 -0.893,0.17 -0.147,-0.006 -0.573,0.034 -0.742,-0.072 -0.17,-0.103 -0.591,-0.259 -0.676,-0.32 -0.086,-0.061 -0.416,-0.369 -0.416,-0.369 l -0.468,-0.4 c 0,0 -0.562,-0.539 -0.616,-1.718 -0.013,-0.259 0,-0.551 0.049,-0.874 0,0 0.069,-0.526 0.395,-0.922 0.091,-0.111 0.777,-0.642 0.777,-0.642 0,0 0.276,-0.052 0.341,-0.056 0.066,-0.004 0.257,-0.081 0.346,-0.265 0.086,-0.186 0.29,-0.924 0.708,-0.799 l 0.295,0.277 c 0,0 0.433,-0.172 0.514,-0.21 0.072,-0.036 0.758,-0.377 1.573,0.791 0.084,0.121 0.17,0.258 0.256,0.413 0,0 0.281,0.718 0.586,1.295 0.07,0.033 0.331,0.196 0.414,0.226 0.89,0.326 1.22,1.548 1.22,1.548 0,0 0.007,0.171 -0.006,0.417 m -10.504,-23.504 -0.002,-1.04 m -4.01,2.359 -10e-4,-1.055 4.068,-1.371 7.441,2.187 0,1.052 m -11.507,-0.814 4.011,-1.318 7.496,2.132 -4.273,0.878 -2.729,-0.638 -0.271,-0.064 0,0 -4.234,-0.99 -0.001,10e-4 m 7.419,19.154 c 0,0 -0.131,-0.397 -0.272,-0.497 -0.14,-0.099 -0.812,-0.974 -0.685,-1.547 0.127,-0.573 0.419,-1.56 0.419,-1.56 l 0.276,0.033 2.57,0.309 c 0,0 0.175,0.043 0.392,0.125 0.247,0.093 0.55,0.237 0.719,0.428 0.316,0.356 1.213,1.837 1.213,1.837 m -7.552,-15.405 -0.264,-1.888 m 0,0 -0.253,-1.34 0.524,1.404 0.973,2.465 1.194,-3.246 -0.687,4.572 -0.046,0.486 c 0,0 -0.461,-0.037 -0.7,-0.408 -0.238,-0.371 -0.46,-1.17 -0.531,-1.491 -0.062,-0.279 -0.215,-0.537 -0.224,-0.553 l -0.001,-10e-4 c -0.289,-0.008 -0.262,0.399 -0.262,0.399 l -0.105,1.74 c -0.096,0.073 -0.166,0.155 -0.216,0.244 -0.18,0.318 -0.113,0.719 -0.108,1.032 0.005,0.401 0.357,0.856 0.62,1.431 0.119,0.262 0.341,0.96 0.546,1.643 0.245,0.816 0.468,1.611 0.468,1.611 0.12,0.991 0.29,1.718 0.471,2.253 0.386,1.142 0.82,1.41 0.915,1.496 0.141,0.125 0.353,0.78 0.353,0.78 m -1.121,-10.657 c 0.219,0.294 0.462,0.79 0.308,1.446 -0.258,1.091 -0.217,1.33 -0.117,1.649 0.064,0.202 1.428,1.825 2.356,3.524 0.1,0.179 0.193,0.36 0.279,0.54 0.378,0.785 0.624,1.556 0.566,2.178 l 0.825,1.764 0.008,0.016 m -3.531,5.833 -1.724,0.826 m 4.699,5.168 c 0,0 -0.302,-1.221 1.376,-2.413 m 3.742,1.212 c 0,0 -0.228,0.43 -0.886,0.9 -0.319,0.227 -0.697,0.454 -1.117,0.624 m -2.179,3.186 c 0,0 1.78,-0.631 2.906,-2.501 0,0 0.416,-0.724 0.419,-1.09 10e-4,-0.121 10e-4,-0.168 10e-4,-0.176 l 0,0 m 0,0 c -0.002,0.011 -0.004,0.123 -0.004,0.123 m -7.478,2.79 c 0,0 0.322,-1.136 0.919,-1.292 0,0 0.927,-0.029 1.689,0.545 m 0.233,-2.054 c 0,0 -0.138,-0.633 -0.231,-0.598 -0.092,0.032 -0.353,0.471 -0.353,0.471 l 0.278,0.973 0.123,1.203 0.005,0.056 0.941,1.533 c 0.019,0.105 -0.095,0.663 -0.21,0.765 -0.115,0.1 -0.444,0.47 -0.462,0.606 -0.018,0.136 -0.127,0.586 -0.127,0.586 0,0 -0.693,-0.563 -0.845,-0.65 -0.155,-0.085 -0.659,0.013 -0.794,0.021 -0.133,0.008 -0.449,-0.08 -0.525,-0.237 -0.077,-0.156 -0.349,-0.64 -0.422,-0.743 -0.073,-0.103 -0.157,-0.608 -0.158,-0.852 -10e-4,-0.124 -0.058,-0.227 -0.121,-0.323 -0.06,-0.088 -0.125,-0.17 -0.156,-0.253 -0.064,-0.169 0.02,-0.336 0.057,-0.608 C -16.946,6.414 -17,5.961 -17.035,5.827 -17.069,5.695 -17.299,5.694 -17.351,5.697 -17.406,5.7 -17.698,5.53 -17.698,5.53 c 0,0 0.062,0.375 0.083,0.468 0.019,0.093 -0.232,0.632 -0.288,0.81 -0.056,0.179 -0.235,1.494 -0.232,1.779 0.004,0.28 0.309,1.096 0.333,1.244 0.022,0.147 0.233,0.767 0.383,1.026 0.051,0.09 0.152,0.218 0.269,0.351 l 0,10e-4 c 0.224,0.255 0.503,0.534 0.596,0.608 0.141,0.111 1.042,0.327 1.042,0.327 0,0 1.071,0.111 1.655,-0.489 0,0 0.657,-0.026 0.847,-0.44 0.19,-0.419 0.553,-1.1 0.514,-1.296 -0.038,-0.202 -0.158,-0.409 -0.138,-0.519 0.02,-0.11 -0.044,-0.738 -0.108,-0.91 -0.008,-0.022 -0.016,-0.043 -0.023,-0.063 -0.052,-0.142 -0.086,-0.259 -0.071,-0.387 0.018,-0.15 0.163,-0.644 0.076,-0.746 -0.087,-0.102 -0.24,-0.201 -0.246,-0.296 -0.005,-0.092 -0.007,-0.537 -0.147,-0.65 -0.142,-0.113 -0.206,-0.282 -0.21,-0.363 -0.005,-0.082 0.122,-0.654 -0.068,-0.898 -0.065,-0.085 -0.127,-0.149 -0.183,-0.192 l 0,-10e-4 c -0.053,-0.005 -0.142,0.012 -0.221,-0.052 l -0.148,-0.106 z m -4.952,-2.704 c 0,0 0.473,1.094 0.517,1.16 0,0 0.829,1.241 -0.001,3.324 -0.13,0.324 -0.626,-0.279 -0.651,-0.31 -0.001,0 -0.001,-0.001 -0.001,-0.001 m -2.163,2.312 c 0,0 -0.413,0.736 0.268,1.546 0.681,0.805 0.902,0.913 1.187,0.95 0.284,0.036 0.787,0.102 0.787,0.102 0,0 0.938,0.679 1.842,0.094 m 0,-10e-4 c 0.003,-10e-4 0.005,-0.002 0.007,-0.004 m -5.044,-4.206 c 0,0 0.006,0.78 0.22,0.97 0.155,0.136 0.449,0.364 0.749,0.42 0.114,0.021 0.229,0.017 0.337,-0.027 0.396,-0.161 1.508,-0.671 1.794,-1.32 0.177,-0.405 0.126,-0.667 0.014,-0.832 -0.069,-0.1 -0.16,-0.164 -0.238,-0.204 -0.21,-0.11 -0.67,-0.192 -0.67,-0.192 m -4.958,-22.914 c 0,0 -0.213,3.023 -0.127,3.458 m 4.325,11.528 0.054,-2.488 m -4.413,3.364 c 0,0 -2.191,-1.257 -1.756,-4.775 m 7.334,8.183 c 0.005,-0.09 0.136,-0.892 0.132,-0.954 -0.003,-0.058 0.236,-0.661 0.077,-0.795 -0.181,-0.149 -0.448,-0.269 -0.636,-0.363 -1.41,-0.004 -2.181,0.296 -2.181,0.296 m 2.234,-0.319 c -0.03,-0.683 0.302,-0.834 0.355,-0.929 0.053,-0.093 0.126,-0.231 0.126,-0.231 0,0 0.224,-0.033 0.45,0.057 0.226,0.09 0.455,0.321 0.455,0.321 0.359,0.269 0.072,0.53 0.159,0.808 0.088,0.275 -0.17,0.535 -0.17,0.535 0,0 0.1,-0.006 0.106,0.094 0.006,0.101 -0.274,0.321 -0.313,0.342 -0.039,0.022 0.031,0.158 -0.043,0.297 -0.072,0.132 -0.142,0.492 -0.142,0.492 -0.004,0.044 -0.067,0.306 -0.075,0.341 -0.085,0.336 -0.332,0.416 -0.332,0.416 -0.008,0.194 -0.243,0.343 -0.243,0.343 0.056,0.422 -0.361,0.37 -0.411,0.557 -0.049,0.183 -0.426,0.365 -0.426,0.365 -0.157,0.251 -0.606,0.316 -0.606,0.316 -0.149,0.038 -0.817,-0.232 -0.817,-0.232 0,0 -0.254,0.076 -0.565,-0.056 0,0 -0.648,0.149 -0.97,-0.517 0,0 -0.338,-0.227 -0.486,-0.516 0,0 -0.493,-1.459 -0.562,-1.967 -0.073,-0.544 -0.035,-0.427 -0.087,-0.57 -0.089,-0.248 -1.128,-1.163 -0.607,-1.539 0.523,-0.374 0.671,-0.433 0.767,-0.68 0.097,-0.248 1.592,-0.433 1.914,-0.288 0.323,0.144 0.504,1.203 0.504,1.203 0.02,0.241 0.034,0.462 -0.051,0.788 -0.033,0.13 -0.075,0.256 -0.122,0.364 -0.17,0.383 -0.235,0.801 -0.223,1.01 0.013,0.213 -0.12,0.542 -0.259,0.724 -0.141,0.181 -0.351,0.384 -0.298,0.754 0.052,0.372 0.357,0.899 0.522,0.96 0.165,0.06 0.574,0.339 1.372,0.149 0,0 0.306,-0.27 0.363,-0.316 0.058,-0.043 0.296,-0.194 0.46,-0.334 0.162,-0.144 0.222,-0.334 0.228,-0.385 m -9.411,-16.163 c 0,0 0.402,-0.514 1.25,-0.471 l 0,10e-4 c 1.035,0.157 1.801,0.754 2.111,1.246 l 0,0 c 0.425,0.799 0.739,1.891 -0.503,3.455 m 5.081,0.059 c 0,0 -0.34,0.102 -0.334,0.211 m -0.219,-0.501 -0.179,0.144 m -2.016,0.415 c 0,0 0.183,-0.381 0.386,-0.618 0.203,-0.237 0.898,-0.531 1.341,-0.397 0.187,0.057 0.238,0.2 0.347,0.221 0.108,0.021 0.253,0.173 0.39,0.191 0.134,0.02 0.287,0.334 0.287,0.334 0,0 0.452,-0.108 0.468,0.163 0.016,0.267 0.03,0.937 0.03,0.937 0,0 0.362,0.22 0.447,0.727 m -5.819,0.989 c 0,0 -0.208,0.881 0.152,1.047 0,0 0.02,0.017 0.05,0.045 0.066,0.06 0.186,0.17 0.264,0.258 0.117,0.128 0.378,0.439 0.54,0.453 0.162,0.021 0.333,0.169 0.447,0.296 0.117,0.13 0.468,0.593 1,0.506 0.533,-0.086 1.715,-0.13 1.869,-0.247 0.155,-0.117 0.88,-0.618 0.987,-0.624 0.04,-0.003 0.142,-10e-4 0.264,-0.022 0.207,-0.037 0.469,-0.137 0.569,-0.431 0,0 0.311,-0.234 0.044,-0.623 0,0 0.573,-0.328 0.664,-0.606 0.091,-0.273 0.167,-0.817 -0.328,-0.975 0,0 -0.596,-0.072 -0.703,-0.066 0,0 -0.04,0.245 -0.173,0.282 -0.131,0.032 -0.266,0.04 -0.407,-0.058 -0.139,-0.099 -0.615,-0.393 -0.752,-0.441 -0.138,-0.042 -0.383,-0.083 -0.413,-0.163 -0.033,-0.079 -0.13,-0.262 -0.626,-0.526 -0.004,-0.003 -1.836,-0.418 -1.845,-0.42 m -1.27,-4.041 c 1.366,0.18 1.629,1.874 1.664,2.41 0.005,0.074 -0.123,0.532 -0.123,0.532 0,0 -0.113,0.518 -0.229,0.97 -0.07,0.272 -1.46,2.223 -1.46,2.223 m -1.999,-7.419 c 0,0 0.568,-1.162 0.625,-1.572 0.035,-0.246 0.351,-1.268 0.609,-2.074 0.167,-0.519 0.309,-0.949 0.337,-1.024 0.056,-0.158 0.404,-0.568 0.276,-1.228 -0.009,-0.043 -0.019,-0.087 -0.032,-0.132 -0.03,-0.108 -0.073,-0.223 -0.132,-0.342 -0.46,-0.946 -0.576,-1.986 -2.966,-1.898 l -0.583,0.054 m 1.583,16.633 c 0,0 1.446,-0.374 2.072,-0.811 0.01,-0.007 0.019,-0.013 0.029,-0.021 0.075,-0.054 0.137,-0.111 0.181,-0.166 m -11.712,-11.25 c 0,0 -0.228,-0.203 -0.244,-0.47 -0.016,-0.27 -0.02,-0.78 -0.236,-1.253 -0.216,-0.47 -0.658,-1.549 -0.619,-1.793 0.039,-0.246 0.622,-1.254 0.628,-1.305 0.007,-0.053 0.17,-0.216 0.198,-0.225 0.031,-0.011 0.28,-0.047 0.332,-0.039 0.05,0.006 0.23,-0.025 0.291,-0.008 0.062,0.014 0.227,0.058 0.232,0.138 0.004,0.08 -0.01,0.192 0.052,0.217 0.062,0.027 0.367,0.393 0.258,0.43 -0.108,0.036 -0.297,0.1 -0.394,0.135 -0.1,0.037 -0.231,0.032 -0.284,0.158 -0.054,0.125 -0.11,0.2 -0.062,0.326 0.048,0.131 0.197,0.25 0.292,0.316 0.095,0.066 1.233,0.868 1.413,0.836 0.18,-0.034 0.618,-0.13 0.8,-0.301 0.181,-0.173 1.738,-1.478 2.072,-1.63 0.335,-0.151 1.688,-0.971 2.362,-1.038 0.671,-0.073 1.856,-0.325 2.364,-0.466 0.506,-0.141 1.604,-0.35 2.081,0.199 0.477,0.547 0.692,0.583 0.722,0.926 0.029,0.341 0.2,1.32 -0.084,1.802 -0.285,0.481 -0.556,0.82 -0.556,0.82 m -12.2,4.656 c 0,0 -0.345,-1.476 0.625,-2.379 0.02,-0.02 0.042,-0.04 0.064,-0.058 1.05,-0.898 1.958,-1.922 3.188,-2.507 1.23,-0.589 3.938,-1.663 4.229,-1.764 0.06,-0.02 0.174,-0.063 0.318,-0.121 0.542,-0.218 1.51,-0.644 1.673,-0.803 m -10.555,8.951 c 0,0 0.086,-0.814 0.386,-1.181 0.027,-0.034 0.061,-0.07 0.1,-0.11 0.396,-0.393 1.38,-1.028 2.574,-1.099 1.31,-0.079 2.696,-0.27 3.469,0.458 l 0,10e-4 c 0.002,0.001 0.004,0.003 0.005,0.004 m -2.796,6.361 c 0,0 0.114,-0.124 0.297,-0.319 0.593,-0.625 1.916,-1.989 2.53,-2.354 M -32.304,-16 c 0.072,-0.876 0.218,-1.629 0.562,-1.912 0,0 0.414,-0.349 0.461,-0.391 0.049,-0.045 0.418,-0.278 0.453,-0.362 0.036,-0.08 0.141,-0.359 0.087,-0.416 -0.055,-0.058 -0.274,-0.177 -0.297,-0.218 -0.021,-0.037 -0.096,-0.255 0.052,-0.335 0,0 0.066,-0.053 0.143,0.044 0.077,0.094 0.19,0.131 0.261,0.144 0.072,0.017 0.444,0.175 0.454,0.337 0.009,0.153 0.017,0.279 0.018,0.291 m 0,0 0,0 0.618,-1.289 c 0,0 0.187,-0.091 0.241,-0.043 0.053,0.047 0.127,0.102 0.092,0.194 -0.034,0.094 -0.143,0.474 -0.143,0.474 l -0.159,0.545 -0.132,0.33 -0.124,0.374 m -0.001,0.001 0.001,-0.001 0.613,-0.817 0.321,-0.542 c 0,0 0.16,-0.184 0.264,-0.138 0.103,0.042 0.226,0.097 0.141,0.314 -0.089,0.217 -0.275,0.652 -0.275,0.652 0,0 -0.271,0.531 -0.522,0.728 l 0.563,-0.216 0.768,-0.49 c 0,0 0.122,0.014 0.166,0.071 0.043,0.059 -0.011,0.164 -0.067,0.227 -0.057,0.063 -0.631,0.773 -0.631,0.773 0,0 -0.251,0.189 -0.379,0.245 0,0 -0.125,0.099 -0.151,0.173 -0.025,0.07 -0.342,0.362 -0.4,0.416 -0.057,0.054 -0.553,0.367 -0.722,0.407 -0.169,0.04 -0.62,0.097 -0.584,0.358 0.037,0.259 0.577,1.539 0.577,1.539 l 0.391,0.796 c 0,0 0.066,0.127 0.157,0.312 0.185,0.377 0.469,0.993 0.484,1.246 0,0 0.95,0.129 0.978,0.586 0.027,0.455 0.364,1.135 -2.375,2.136 0,0 -0.813,-0.545 -1.214,-1.381 -0.201,-0.422 -0.407,-0.92 -0.556,-1.495 -0.147,-0.567 -0.238,-1.21 -0.215,-1.932 0.018,-0.568 0.034,-1.176 0.081,-1.734 m -4.772,3.871 c 0,0 -0.879,0.591 -1.014,0.599 -0.064,0.004 -0.297,0.043 -0.553,0.078 -0.274,0.038 -0.576,0.071 -0.73,0.052 -0.299,-0.035 -1.247,-0.569 -1.307,-1.131 -0.061,-0.563 -0.5,-2.071 0.9,-2.045 0,0 0.533,0.296 0.784,0.525 0.036,0.033 0.066,0.064 0.087,0.093 0.177,0.232 1.208,0.819 1.396,0.807 0.11,-0.007 0.571,0.004 0.965,-0.034 0.272,-0.027 0.512,-0.076 0.584,-0.168 0.175,-0.225 0.291,-0.987 0.393,-1.073 0.103,-0.087 0.923,-0.755 0.923,-0.755 m -0.171,5.207 c 0,0 -0.506,-0.245 -0.954,-0.538 -0.225,-0.146 -0.434,-0.304 -0.559,-0.45 -0.329,-0.379 -0.6,-0.805 -0.678,-1.176 -0.011,-0.054 -0.018,-0.105 -0.021,-0.156 -0.025,-0.4 0.332,-0.744 0.486,-0.863 m 4.542,6.138 -1.272,-0.544 c 0,0 -1.312,-0.326 -1.638,-0.363 -0.324,-0.032 -1.579,-0.308 -1.542,-1.038 0.037,-0.727 -0.087,-0.987 0.171,-1.191 0.257,-0.206 0.492,-0.327 0.492,-0.327 m 7.917,13.674 c 0,0 0.798,-0.567 0.873,-0.846 M -30.68,2.123 c 0,0 -0.144,-0.533 0.012,-0.781 0,0 0.411,-1.151 1.651,-1.244 0.117,-0.01 1.257,-0.053 1.257,-0.053 m 2.203,5.646 0.261,-0.284 m -4.999,3.265 c -0.116,0.306 0.2,0.591 0.339,0.672 0.022,0.012 0.229,0.057 0.229,0.057 -0.003,0.021 -0.005,0.033 -0.007,0.051 -0.029,0.437 1.313,0.652 1.313,0.652 0.039,0.859 2.089,0.494 2.089,0.494 0.966,0.157 1.945,-0.574 1.945,-0.574 0.761,0.145 1.165,-0.771 1.165,-0.771 0.727,-0.217 0.41,-1.261 0.39,-1.356 -0.018,-0.091 -0.016,-0.266 -0.397,-0.325 -0.123,-0.018 -0.265,0.022 -0.41,0.087 -0.302,0.136 -0.345,0.071 -0.782,0.348 l -0.547,0.411 c 0,0 0.04,-0.434 -0.144,-0.613 -0.186,-0.177 -0.253,-0.173 -0.375,-0.166 -0.12,0.007 -0.391,-0.258 -0.559,-0.358 -0.168,-0.097 -0.439,-0.386 -0.859,-0.404 0,0 -0.79,-0.169 -1.012,-0.046 -0.222,0.12 -0.725,-0.107 -0.794,0.086 -0.045,0.123 -0.179,0.308 -0.415,0.458 m -0.281,-2.385 1.955,0.507 0.111,-0.06 0.769,-0.418 c 0,0 0.508,-0.272 0.692,-0.243 0.183,0.029 0.189,0.131 0.194,0.211 0.005,0.079 0.134,0.215 0.196,0.229 0.061,0.017 0.194,0.191 0.194,0.191 0,0 0.241,0.007 0.326,0.061 0.08,0.052 0.202,0.196 0.214,0.21 l 0,0 m 0,0 c 0,0 0.302,-0.34 0.39,0.097 0.087,0.439 0.485,1.365 0.557,1.563 0.074,0.196 0.151,0.278 0.151,0.278 M -27.356,5.41 c 0,0 0.09,-0.723 -0.311,-1.207 -0.065,-0.079 -0.144,-0.152 -0.238,-0.214 l -0.673,-0.446 m -3.184,-1.927 1.024,0.514 0.807,0.405 c 0,0 1.201,0.418 1.86,0.711 l 0,0 c 0.238,0.105 0.405,0.195 0.419,0.242 0.049,0.179 0.041,0.685 0.041,0.685 m -6.613,-0.168 c -0.661,-0.244 -1.347,0.444 -1.984,1.248 -0.639,0.807 -0.152,1.506 0.754,2.5 0.807,0.883 3.258,1.133 3.801,1.174 m -2.904,-7.77 -1.188,0.394 c -0.198,0.054 -1.341,0.524 -1.583,0.539 -0.24,0.014 -0.831,0.249 -1.103,0.426 -0.273,0.182 -0.828,1.021 -0.816,1.224 0.01,0.165 0.091,1.079 0.209,1.755 0.026,0.152 0.054,0.292 0.083,0.408 0.158,0.636 0.697,0.846 1.073,1.066 0.377,0.221 0.789,1.043 1.207,1.302 0.421,0.257 1.523,0.472 2.383,0.664 0.858,0.19 2.504,0.011 2.504,0.011 0,0 0.05,0.003 0.136,10e-4 0.246,-0.007 0.788,-0.055 1.331,-0.326 0.147,-0.073 0.294,-0.162 0.435,-0.271 0.304,-0.237 0.523,-0.514 0.667,-0.809 0.258,-0.528 0.276,-1.114 0.116,-1.623 -0.1,-0.321 -0.26,-0.62 -0.434,-0.87 -0.254,-0.366 -0.537,-0.631 -0.711,-0.717 -0.291,-0.144 -0.577,-0.208 -0.724,-0.644 -0.146,-0.434 -0.369,-1.43 -0.837,-1.847 0,0 -0.074,-0.021 -0.026,-0.222 0.015,-0.058 0.039,-0.132 0.079,-0.226 0.177,-0.414 0.755,-1.538 0.745,-2.387 -0.011,-0.848 0.143,-1.663 0.346,-2.321 0.203,-0.659 0.599,-1.45 0.76,-1.46 0.161,-0.01 0.478,-0.108 0.592,-0.239 0.113,-0.127 0.547,-0.314 0.665,-0.362 0.072,-0.028 0.243,-0.107 0.277,-0.195 0.022,-0.059 -0.014,-0.12 -0.177,-0.175 -0.413,-0.137 -0.77,-0.034 -0.77,-0.034 0,0 -0.215,0.123 -0.287,0.119 -0.07,-0.006 -0.167,-0.102 -0.23,-0.137 -0.057,-0.035 -0.298,-0.101 -0.389,-0.218 0,-10e-4 0,-10e-4 0,-0.002 -0.008,-0.009 -0.015,-0.019 -0.02,-0.029 m 0.023,0.037 c 0,0 -0.001,-0.002 -0.003,-0.006 m 0,-0.002 c -0.019,-0.049 -0.12,-0.315 -0.144,-0.406 -0.026,-0.099 -0.086,-0.439 -0.095,-0.578 -0.008,-0.142 0.002,-0.326 -0.103,-0.379 0,0 -0.254,-0.186 -0.395,-0.199 -0.143,-0.01 -0.386,-0.036 -0.521,0.072 -0.134,0.11 -0.285,0.301 -0.419,0.407 -0.028,0.024 -0.059,0.056 -0.088,0.095 -0.113,0.148 -0.217,0.403 -0.165,0.751 0.067,0.441 0.33,0.786 0.336,0.889 0.006,0.099 -0.482,1.382 -0.482,1.382 0,0 -0.748,1.012 -0.873,1.263 -0.095,0.185 -0.52,0.65 -0.804,1.731 -0.097,0.369 -0.178,0.811 -0.224,1.338 0,0 -0.105,0.306 -0.08,0.872 0.005,0.122 0.017,0.257 0.036,0.403 0.108,0.822 0.073,1.894 0.085,2.096 0.003,0.048 0.013,0.146 0.028,0.276 0.05,0.4 0.163,1.1 0.345,1.579 0.24,0.632 1.16,2.171 1.16,2.171 m -1.724,-6.521 c 0,0 -0.06,-0.044 -0.165,-0.12 -0.269,-0.194 -0.832,-0.595 -1.436,-0.993 -0.84,-0.556 -1.562,0.214 -1.987,0.523 -0.427,0.306 -1.332,0 -2.147,-0.115 -0.476,-0.065 -0.889,0.223 -1.188,0.509 -0.214,0.204 -0.37,0.405 -0.45,0.477 -0.192,0.173 -0.346,0.95 -0.134,1.14 0.214,0.19 0.824,0.919 0.824,0.919 0.951,1.72 1.933,1.943 1.933,1.943 m -2.166,-4.473 c 0,0 -0.003,-0.002 -0.007,-0.006 -0.067,-0.056 -0.548,-0.513 0.201,-1.655 m 2.949,-0.593 c 0,0 -0.826,-0.854 -0.826,-2.207 0.001,-1.35 0.384,-3.352 0.377,-3.817 -0.005,-0.286 -0.121,-0.988 -0.27,-1.676 -0.092,-0.426 -0.321,-1.378 0.09,-2.404 m -1.023,10.29 c 0,0 -1.217,-0.837 -1.197,-2.859 0.019,-1.881 0.297,-4.466 -0.483,-5.865 -0.058,-0.103 -0.121,-0.203 -0.19,-0.3 0,0 -0.601,-0.707 -0.097,-0.737 0.503,-0.03 0.8,0.01 1.046,-0.268 0.103,-0.117 0.22,-0.231 0.338,-0.292 0,0 0.511,-0.117 1.069,-0.034"
             style="fill:none;stroke:#231f20;stroke-width:0.26300001;stroke-linecap:round;stroke-linejoin:round;stroke-miterlimit:4;stroke-dasharray:none;stroke-opacity:1"
             id="path734"
             inkscape:connector-curvature="0" />
        </g>
        <g
           id="g736"
           transform="translate(207.7298,497.3551)">
          <path
             d="M 0,0 C 0,0 -1.233,-0.984 0.604,-1.533"
             style="fill:none;stroke:#231f20;stroke-width:0.23800001;stroke-linecap:round;stroke-linejoin:round;stroke-miterlimit:4;stroke-dasharray:none;stroke-opacity:1"
             id="path738"
             inkscape:connector-curvature="0" />
        </g>
        <g
           id="g740"
           transform="translate(217.6165,508.7013)">
          <path
             d="m 0,0 c 0,0 0.327,-1.696 0,-3.56 -0.327,-1.864 0.367,-7.416 0.22,-8.52"
             style="fill:none;stroke:#231f20;stroke-width:0.26300001;stroke-linecap:round;stroke-linejoin:round;stroke-miterlimit:4;stroke-dasharray:none;stroke-opacity:1"
             id="path742"
             inkscape:connector-curvature="0" />
        </g>
      </g>
    </g>
    <g
       id="g744"
       transform="matrix(1.25,0,0,-1.25,-974.18534,925.08508)">
      <path
         d="M 0,0 1.053,1.053"
         style="fill:none;stroke:#231f20;stroke-width:0.26300001;stroke-linecap:round;stroke-linejoin:round;stroke-miterlimit:4;stroke-dasharray:none;stroke-opacity:1"
         id="path746"
         inkscape:connector-curvature="0" />
    </g>
    <g
       transform="matrix(1.25,0,0,-1.25,-1241.2772,1567.0287)"
       id="g748">
      <g
         id="g750"
         clip-path="url(#clipPath752)">
        <g
           id="g756"
           transform="translate(209.1916,506.3358)">
          <path
             d="m 0,0 c 0,0 -0.049,-0.826 0.09,-2.013 m 2.978,-5.942 c 1.419,-1.602 2.983,-3.223 2.983,-3.223 m -7.732,13.852 2.393,0.12 c 0,0 0.52,0.064 0.857,0.273 m -3.608,0.612 c 0,0 -0.142,-0.876 -0.348,-1.418 m -8.985,6.002 c 0.392,0.196 0.452,0.446 0.452,0.446 0,0 -0.572,0.408 -0.908,0.549 -0.336,0.14 0.003,0.406 0.003,0.406 M -2.02,7.179 c 0,0 1.726,0.346 1.803,-1.511 m -21.598,-8.727 c 0,0 0.547,0.665 1.804,0.665 0,0 0.538,0.025 0.97,0.025 M -16,-5.236 c -0.133,-0.506 -0.137,-1.091 -0.534,-2.139 0,0 -0.205,-0.55 -0.441,-1.034 -0.171,-0.594 -1.569,-1.807 -1.569,-1.807 m 4.99,14.605 c 0,0 2.157,-0.487 2.629,1.054 M -24.932,4.128 c 0,0 -0.116,-0.987 0.175,-2.381 0.29,-1.394 0.696,-2.672 0.696,-2.672 m 5.643,-0.245 c 0,0 2.221,-0.871 2.557,-1.926 m 5.534,2.964 c 0,0 0.948,2.925 1.541,3.163"
             style="fill:none;stroke:#231f20;stroke-width:0.26300001;stroke-linecap:round;stroke-linejoin:round;stroke-miterlimit:4;stroke-dasharray:none;stroke-opacity:1"
             id="path758"
             inkscape:connector-curvature="0" />
        </g>
      </g>
    </g>
    <g
       id="g760"
       transform="matrix(1.25,0,0,-1.25,-999.26771,937.59571)">
      <path
         d="M 0,0 -0.254,-0.214"
         style="fill:none;stroke:#231f20;stroke-width:0.26300001;stroke-linecap:round;stroke-linejoin:round;stroke-miterlimit:4;stroke-dasharray:none;stroke-opacity:1"
         id="path762"
         inkscape:connector-curvature="0" />
    </g>
    <g
       id="g772"
       transform="matrix(1.25,0,0,-1.25,-1045.9756,1014.7481)">
      <path
         d="m 0,0 c -0.027,-0.188 0.067,-0.309 0.255,-0.309 l 0.874,0 c 0.107,0 0.228,0.094 0.242,0.188 l 0.967,6.006 0.054,0 2.432,-6.181 c 0.027,-0.08 0.121,-0.147 0.228,-0.147 l 0.242,0 c 0.121,0 0.202,0.067 0.229,0.147 l 2.418,6.181 0.041,0 0.994,-6.006 C 9.003,-0.215 9.11,-0.309 9.231,-0.309 l 0.874,0 c 0.188,0 0.282,0.121 0.242,0.309 L 8.694,9.03 C 8.667,9.137 8.56,9.231 8.452,9.231 l -0.215,0 C 8.143,9.231 8.035,9.164 8.009,9.084 L 5.214,2.217 5.16,2.217 2.352,9.084 C 2.325,9.164 2.204,9.231 2.123,9.231 l -0.215,0 C 1.801,9.231 1.693,9.137 1.666,9.03 L 0,0 Z m 12.322,-0.054 c 0,-0.134 0.121,-0.255 0.255,-0.255 l 0.887,0 c 0.134,0 0.255,0.121 0.255,0.255 l 0,8.896 c 0,0.134 -0.121,0.255 -0.255,0.255 l -0.887,0 c -0.134,0 -0.255,-0.121 -0.255,-0.255 l 0,-8.896 z m 4.004,0 c 0,-0.134 0.107,-0.255 0.255,-0.255 l 4.784,0 c 0.148,0 0.255,0.121 0.255,0.255 l 0,0.739 c 0,0.135 -0.107,0.256 -0.255,0.256 l -3.642,0 0,7.901 c 0,0.134 -0.121,0.255 -0.255,0.255 l -0.887,0 c -0.148,0 -0.255,-0.121 -0.255,-0.255 l 0,-8.896 z m 6.342,-0.255 0.847,0 c 0.161,0 0.268,0.107 0.309,0.202 0.269,0.618 0.551,1.222 0.819,1.84 l 4.394,0 0.834,-1.84 c 0.053,-0.121 0.147,-0.202 0.309,-0.202 l 0.846,0 c 0.202,0 0.309,0.175 0.229,0.349 l -4.099,9.044 c -0.04,0.08 -0.161,0.147 -0.228,0.147 l -0.135,0 c -0.067,0 -0.188,-0.067 -0.228,-0.147 L 22.44,0.04 c -0.081,-0.174 0.027,-0.349 0.228,-0.349 m 2.499,3.198 1.64,3.682 0.067,0 1.653,-3.682 -3.36,0 z m 7.431,-2.943 c 0,-0.134 0.121,-0.255 0.255,-0.255 l 0.847,0 c 0.148,0 0.255,0.121 0.255,0.255 l 0,6.544 0.014,0 5.831,-6.933 0.35,0 c 0.134,0 0.255,0.107 0.255,0.241 l 0,9.044 c 0,0.134 -0.121,0.255 -0.255,0.255 l -0.86,0 c -0.148,0 -0.255,-0.121 -0.255,-0.255 l 0,-6.356 -0.014,0 -5.832,6.745 -0.336,0 c -0.134,0 -0.255,-0.107 -0.255,-0.241 l 0,-9.044 z m 9.729,4.435 c 0,-2.688 2.136,-4.824 4.824,-4.824 2.687,0 4.837,2.136 4.837,4.824 0,2.687 -2.15,4.85 -4.837,4.85 -2.688,0 -4.824,-2.163 -4.824,-4.85 m 1.343,0 c 0,1.908 1.572,3.507 3.481,3.507 1.921,0 3.493,-1.599 3.493,-3.507 0,-1.922 -1.572,-3.481 -3.493,-3.481 -1.909,0 -3.481,1.559 -3.481,3.481 m 12.243,-4.69 4.676,0 c 0.148,0 0.256,0.107 0.256,0.242 l 0,0.578 c 0,0.147 -0.108,0.255 -0.256,0.255 l -1.478,0 0,7.807 c 0,0.134 -0.107,0.255 -0.242,0.255 l -0.658,0 -2.002,-1.814 C 56.155,6.96 56.128,6.853 56.168,6.745 l 0.162,-0.47 c 0.04,-0.121 0.174,-0.148 0.295,-0.094 l 1.169,0.591 0,-6.006 -1.881,0 c -0.148,0 -0.255,-0.108 -0.255,-0.255 l 0,-0.578 c 0,-0.135 0.107,-0.242 0.255,-0.242 m 6.45,2.446 c 0,-1.465 1.196,-2.58 3.077,-2.58 1.948,0 3.131,1.115 3.131,2.58 0,1.155 -1.008,1.961 -1.626,2.244 l 0,0.053 c 0.578,0.296 1.384,1.035 1.384,2.07 0,1.478 -1.223,2.459 -2.876,2.459 -1.612,0 -2.848,-0.981 -2.848,-2.459 0,-1.048 0.806,-1.788 1.384,-2.083 l 0,-0.04 C 63.492,4.152 62.363,3.306 62.363,2.137 m 3.104,2.875 c -1.048,0.161 -1.505,0.712 -1.505,1.438 0,0.82 0.658,1.411 1.465,1.411 0.886,0 1.545,-0.591 1.545,-1.411 0,-0.712 -0.47,-1.29 -1.505,-1.438 M 63.76,2.11 c 0,0.712 0.618,1.451 1.707,1.612 1.088,-0.161 1.706,-0.9 1.706,-1.612 0,-0.901 -0.766,-1.465 -1.72,-1.465 -0.886,0 -1.693,0.578 -1.693,1.465 m 6.195,1.209 c 0,-2.069 1.021,-3.762 3.171,-3.762 1.626,0 2.996,1.384 2.996,3.077 0,1.854 -1.384,2.916 -2.808,2.916 -0.9,0 -1.68,-0.43 -1.787,-0.498 0.443,1.653 2.58,2.768 3.198,2.97 0.255,0.081 0.309,0.228 0.242,0.39 L 74.738,8.963 C 74.685,9.11 74.564,9.178 74.402,9.124 73.166,8.654 69.955,7.068 69.955,3.319 m 3.158,-2.553 c -1.465,0 -1.962,1.532 -1.855,2.66 0.081,0.242 0.78,1.022 1.841,1.022 0.994,0 1.787,-0.82 1.787,-1.828 0,-1.008 -0.779,-1.854 -1.773,-1.854 m 4.03,-0.014 c 0.296,-0.349 1.089,-1.195 2.755,-1.195 1.854,0 3.037,1.101 3.037,2.566 0,1.156 -0.994,1.962 -1.626,2.231 l 0,0.04 c 0.605,0.282 1.384,1.075 1.384,2.11 0,1.505 -1.25,2.459 -2.808,2.459 -1.465,0 -2.486,-1.183 -2.486,-1.183 -0.094,-0.094 -0.108,-0.255 0,-0.349 l 0.497,-0.444 c 0.121,-0.107 0.269,-0.08 0.349,0.027 0.269,0.296 0.753,0.753 1.559,0.753 0.793,0 1.532,-0.565 1.532,-1.465 0,-0.793 -0.632,-1.438 -1.895,-1.438 l -0.752,0 c -0.188,0 -0.269,-0.08 -0.269,-0.282 l 0,-0.578 c 0,-0.188 0.108,-0.282 0.255,-0.282 l 0.753,0 c 1.438,0 2.123,-0.766 2.123,-1.572 0,-0.9 -0.806,-1.451 -1.68,-1.451 -0.994,0 -1.747,0.725 -1.827,0.833 -0.108,0.121 -0.229,0.134 -0.363,0.027 L 77.157,1.075 C 77.063,0.994 77.063,0.847 77.143,0.752"
         style="fill:#231f20;fill-opacity:1;fill-rule:nonzero;stroke:none"
         id="path774"
         inkscape:connector-curvature="0" />
    </g>
    <g
       id="g776"
       transform="matrix(1.25,0,0,-1.25,-1072.0763,994.94746)">
      <path
         d="m 0,0 c 0,-0.192 0.154,-0.365 0.365,-0.365 l 1.766,0 c 0.192,0 0.364,0.173 0.364,0.365 l 0,4.511 2.4,0 c 2.342,0 4.281,1.939 4.281,4.319 0,2.323 -1.939,4.242 -4.3,4.242 l -4.511,0 C 0.154,13.072 0,12.9 0,12.708 L 0,0 Z m 2.495,6.853 0,3.858 2.227,0 c 1.075,0 1.977,-0.806 1.977,-1.862 0,-1.132 -0.902,-1.996 -1.977,-1.996 l -2.227,0 z m 8.14,-0.518 c 0,-3.84 3.052,-6.892 6.891,-6.892 3.839,0 6.91,3.052 6.91,6.892 0,3.839 -3.071,6.929 -6.91,6.929 -3.839,0 -6.891,-3.09 -6.891,-6.929 m 2.495,0 c 0,2.418 1.977,4.434 4.396,4.434 2.419,0 4.415,-2.016 4.415,-4.434 0,-2.419 -1.996,-4.396 -4.415,-4.396 -2.419,0 -4.396,1.977 -4.396,4.396 M 26.452,0 c 0,-0.192 0.153,-0.365 0.365,-0.365 l 7.025,0 c 0.211,0 0.365,0.173 0.365,0.365 l 0,1.574 c 0,0.192 -0.154,0.365 -0.365,0.365 l -4.895,0 0,10.769 c 0,0.192 -0.172,0.364 -0.364,0.364 l -1.766,0 c -0.212,0 -0.365,-0.172 -0.365,-0.364 L 26.452,0 Z m 10.269,0 c 0,-0.192 0.173,-0.365 0.365,-0.365 l 1.785,0 c 0.192,0 0.365,0.173 0.365,0.365 l 0,12.708 c 0,0.192 -0.173,0.364 -0.365,0.364 l -1.785,0 c -0.192,0 -0.365,-0.172 -0.365,-0.364 L 36.721,0 Z m 8.235,0 c 0,-0.192 0.173,-0.365 0.365,-0.365 l 1.785,0 c 0.192,0 0.365,0.173 0.365,0.365 l 0,10.769 2.937,0 c 0.211,0 0.365,0.173 0.365,0.365 l 0,1.574 c 0,0.192 -0.154,0.364 -0.365,0.364 l -8.389,0 c -0.211,0 -0.364,-0.172 -0.364,-0.364 l 0,-1.574 c 0,-0.192 0.153,-0.365 0.364,-0.365 l 2.937,0 0,-10.769 z m 8.005,0 c 0,-0.192 0.153,-0.365 0.365,-0.365 l 7.812,0 c 0.212,0 0.365,0.173 0.365,0.365 l 0,1.574 c 0,0.192 -0.153,0.365 -0.365,0.365 l -5.682,0 0,3.359 4.742,0 c 0.192,0 0.365,0.154 0.365,0.365 l 0,1.593 c 0,0.192 -0.173,0.365 -0.365,0.365 l -4.742,0 0,3.148 5.682,0 c 0.212,0 0.365,0.173 0.365,0.365 l 0,1.574 c 0,0.192 -0.153,0.364 -0.365,0.364 l -7.812,0 c -0.212,0 -0.365,-0.172 -0.365,-0.364 L 52.961,0 Z m 10.5,6.335 c 0,-3.84 3.091,-6.892 6.93,-6.892 1.708,0 3.359,0.595 4.664,1.862 0.135,0.135 0.173,0.384 0.02,0.519 l -1.19,1.228 c -0.116,0.115 -0.327,0.135 -0.48,0 C 72.598,2.4 71.619,1.958 70.468,1.958 c -2.457,0 -4.3,2.035 -4.3,4.434 0,2.419 1.823,4.473 4.28,4.473 1.075,0 2.15,-0.422 2.957,-1.133 0.153,-0.153 0.345,-0.153 0.48,0 l 1.17,1.21 c 0.154,0.153 0.154,0.384 -0.019,0.537 -1.305,1.171 -2.706,1.785 -4.645,1.785 -3.839,0 -6.93,-3.09 -6.93,-6.929 M 77.608,0 c 0,-0.192 0.173,-0.365 0.365,-0.365 l 1.747,0 c 0.211,0 0.365,0.173 0.365,0.365 l 0,8.254 0.019,0 8.024,-8.811 0.461,0 c 0.191,0 0.364,0.154 0.364,0.346 l 0,12.919 c 0,0.192 -0.173,0.364 -0.364,0.364 l -1.767,0 c -0.211,0 -0.364,-0.172 -0.364,-0.364 l 0,-7.928 -0.019,0 -7.986,8.484 -0.48,0 c -0.192,0 -0.365,-0.153 -0.365,-0.345 L 77.608,0 Z m 14.647,0 c 0,-0.192 0.173,-0.365 0.365,-0.365 l 1.785,0 c 0.192,0 0.365,0.173 0.365,0.365 l 0,12.708 c 0,0.192 -0.173,0.364 -0.365,0.364 l -1.785,0 c -0.192,0 -0.365,-0.172 -0.365,-0.364 L 92.255,0 Z m 5.029,6.335 c 0,-3.84 3.091,-6.892 6.93,-6.892 1.708,0 3.359,0.595 4.664,1.862 0.135,0.135 0.173,0.384 0.02,0.519 l -1.191,1.228 c -0.115,0.115 -0.326,0.135 -0.479,0 -0.807,-0.652 -1.786,-1.094 -2.937,-1.094 -2.458,0 -4.3,2.035 -4.3,4.434 0,2.419 1.823,4.473 4.28,4.473 1.075,0 2.15,-0.422 2.957,-1.133 0.153,-0.153 0.345,-0.153 0.479,0 l 1.171,1.21 c 0.154,0.153 0.154,0.384 -0.019,0.537 -1.305,1.171 -2.706,1.785 -4.645,1.785 -3.839,0 -6.93,-3.09 -6.93,-6.929 m 13.379,0 c 0,-3.84 3.053,-6.892 6.892,-6.892 3.839,0 6.91,3.052 6.91,6.892 0,3.839 -3.071,6.929 -6.91,6.929 -3.839,0 -6.892,-3.09 -6.892,-6.929 m 2.496,0 c 0,2.418 1.977,4.434 4.396,4.434 2.418,0 4.415,-2.016 4.415,-4.434 0,-2.419 -1.997,-4.396 -4.415,-4.396 -2.419,0 -4.396,1.977 -4.396,4.396"
         style="fill:#231f20;fill-opacity:1;fill-rule:nonzero;stroke:none"
         id="path778"
         inkscape:connector-curvature="0" />
    </g>
  </g>
</svg>
